G04*
G04 #@! TF.GenerationSoftware,Altium Limited,Altium Designer,20.2.6 (244)*
G04*
G04 Layer_Color=8388736*
%FSLAX25Y25*%
%MOIN*%
G70*
G04*
G04 #@! TF.SameCoordinates,357903E5-7464-4FF3-9603-397411888FB0*
G04*
G04*
G04 #@! TF.FilePolarity,Positive*
G04*
G01*
G75*
%ADD10C,0.01575*%
%ADD14C,0.01968*%
%ADD16C,0.00787*%
G36*
X162089Y131606D02*
X159962D01*
Y132118D01*
X162089D01*
Y131606D01*
D02*
G37*
G36*
X167579Y132145D02*
X168384D01*
Y131633D01*
X167579D01*
Y130825D01*
X167067D01*
Y131633D01*
X166258D01*
Y132145D01*
X167067D01*
Y132951D01*
X167579D01*
Y132145D01*
D02*
G37*
G36*
X153662Y117737D02*
X150676D01*
Y118483D01*
X153662D01*
Y117737D01*
D02*
G37*
G36*
X139916Y118472D02*
X141035D01*
Y117725D01*
X139916D01*
Y115610D01*
X139169D01*
Y117725D01*
X138050D01*
Y118472D01*
X139169D01*
Y120587D01*
X139916D01*
Y118472D01*
D02*
G37*
G36*
X340020Y116398D02*
X340829D01*
Y115886D01*
X340020D01*
Y115076D01*
X339508D01*
Y115886D01*
X338703D01*
Y116398D01*
X339508D01*
Y117202D01*
X340020D01*
Y116398D01*
D02*
G37*
G36*
X330178D02*
X330986D01*
Y115886D01*
X330178D01*
Y115076D01*
X329666D01*
Y115886D01*
X328860D01*
Y116398D01*
X329666D01*
Y117202D01*
X330178D01*
Y116398D01*
D02*
G37*
G36*
X320335D02*
X321144D01*
Y115886D01*
X320335D01*
Y115076D01*
X319823D01*
Y115886D01*
X319018D01*
Y116398D01*
X319823D01*
Y117202D01*
X320335D01*
Y116398D01*
D02*
G37*
G36*
X310492D02*
X311301D01*
Y115886D01*
X310492D01*
Y115076D01*
X309981D01*
Y115886D01*
X309175D01*
Y116398D01*
X309981D01*
Y117202D01*
X310492D01*
Y116398D01*
D02*
G37*
G36*
X300650D02*
X301459D01*
Y115886D01*
X300650D01*
Y115076D01*
X300138D01*
Y115886D01*
X299333D01*
Y116398D01*
X300138D01*
Y117202D01*
X300650D01*
Y116398D01*
D02*
G37*
G36*
X290808D02*
X291616D01*
Y115886D01*
X290808D01*
Y115076D01*
X290296D01*
Y115886D01*
X289490D01*
Y116398D01*
X290296D01*
Y117202D01*
X290808D01*
Y116398D01*
D02*
G37*
G36*
X280965D02*
X281774D01*
Y115886D01*
X280965D01*
Y115076D01*
X280453D01*
Y115886D01*
X279648D01*
Y116398D01*
X280453D01*
Y117202D01*
X280965D01*
Y116398D01*
D02*
G37*
G36*
X271122D02*
X271931D01*
Y115886D01*
X271122D01*
Y115076D01*
X270611D01*
Y115886D01*
X269805D01*
Y116398D01*
X270611D01*
Y117202D01*
X271122D01*
Y116398D01*
D02*
G37*
G36*
X261280D02*
X262089D01*
Y115886D01*
X261280D01*
Y115076D01*
X260768D01*
Y115886D01*
X259963D01*
Y116398D01*
X260768D01*
Y117202D01*
X261280D01*
Y116398D01*
D02*
G37*
G36*
X251437D02*
X252246D01*
Y115886D01*
X251437D01*
Y115076D01*
X250926D01*
Y115886D01*
X250120D01*
Y116398D01*
X250926D01*
Y117202D01*
X251437D01*
Y116398D01*
D02*
G37*
G36*
X241595D02*
X242404D01*
Y115886D01*
X241595D01*
Y115076D01*
X241083D01*
Y115886D01*
X240278D01*
Y116398D01*
X241083D01*
Y117202D01*
X241595D01*
Y116398D01*
D02*
G37*
G36*
X231752D02*
X232561D01*
Y115886D01*
X231752D01*
Y115076D01*
X231241D01*
Y115886D01*
X230435D01*
Y116398D01*
X231241D01*
Y117202D01*
X231752D01*
Y116398D01*
D02*
G37*
G36*
X221910D02*
X222719D01*
Y115886D01*
X221910D01*
Y115076D01*
X221398D01*
Y115886D01*
X220593D01*
Y116398D01*
X221398D01*
Y117202D01*
X221910D01*
Y116398D01*
D02*
G37*
G36*
X212067D02*
X212876D01*
Y115886D01*
X212067D01*
Y115076D01*
X211556D01*
Y115886D01*
X210750D01*
Y116398D01*
X211556D01*
Y117202D01*
X212067D01*
Y116398D01*
D02*
G37*
G36*
X202225D02*
X203034D01*
Y115886D01*
X202225D01*
Y115076D01*
X201713D01*
Y115886D01*
X200908D01*
Y116398D01*
X201713D01*
Y117202D01*
X202225D01*
Y116398D01*
D02*
G37*
G36*
X192382D02*
X193191D01*
Y115886D01*
X192382D01*
Y115076D01*
X191870D01*
Y115886D01*
X191065D01*
Y116398D01*
X191870D01*
Y117202D01*
X192382D01*
Y116398D01*
D02*
G37*
G36*
X340047Y108781D02*
X339535D01*
Y110907D01*
X340047D01*
Y108781D01*
D02*
G37*
G36*
X330205D02*
X329693D01*
Y110907D01*
X330205D01*
Y108781D01*
D02*
G37*
G36*
X320362D02*
X319850D01*
Y110907D01*
X320362D01*
Y108781D01*
D02*
G37*
G36*
X310520D02*
X310008D01*
Y110907D01*
X310520D01*
Y108781D01*
D02*
G37*
G36*
X300677D02*
X300165D01*
Y110907D01*
X300677D01*
Y108781D01*
D02*
G37*
G36*
X290834D02*
X290323D01*
Y110907D01*
X290834D01*
Y108781D01*
D02*
G37*
G36*
X280992D02*
X280480D01*
Y110907D01*
X280992D01*
Y108781D01*
D02*
G37*
G36*
X271149D02*
X270638D01*
Y110907D01*
X271149D01*
Y108781D01*
D02*
G37*
G36*
X261307D02*
X260795D01*
Y110907D01*
X261307D01*
Y108781D01*
D02*
G37*
G36*
X251464D02*
X250953D01*
Y110907D01*
X251464D01*
Y108781D01*
D02*
G37*
G36*
X241622D02*
X241110D01*
Y110907D01*
X241622D01*
Y108781D01*
D02*
G37*
G36*
X231779D02*
X231268D01*
Y110907D01*
X231779D01*
Y108781D01*
D02*
G37*
G36*
X221937D02*
X221425D01*
Y110907D01*
X221937D01*
Y108781D01*
D02*
G37*
G36*
X212094D02*
X211582D01*
Y110907D01*
X212094D01*
Y108781D01*
D02*
G37*
G36*
X202252D02*
X201740D01*
Y110907D01*
X202252D01*
Y108781D01*
D02*
G37*
G36*
X192409D02*
X191897D01*
Y110907D01*
X192409D01*
Y108781D01*
D02*
G37*
G36*
X148189Y91654D02*
X147008Y90866D01*
X129291D01*
X127323Y92047D01*
X129685Y92835D01*
X147401D01*
X148189Y91654D01*
D02*
G37*
G36*
X41417D02*
X40236Y90866D01*
X22520D01*
X20551Y92047D01*
X22913Y92835D01*
X40630D01*
X41417Y91654D01*
D02*
G37*
G36*
X94724Y91654D02*
X93543Y90866D01*
X75827D01*
X73858Y92047D01*
X76221Y92835D01*
X93937D01*
X94724Y91654D01*
D02*
G37*
G36*
X348819Y96457D02*
X338189D01*
Y89370D01*
X348819D01*
Y88583D01*
X337402D01*
Y89370D01*
Y96457D01*
Y97244D01*
X348819D01*
Y96457D01*
D02*
G37*
G36*
X150551Y90472D02*
X149370Y73543D01*
X148189Y72362D01*
X147401Y73937D01*
X148583Y90472D01*
X150157Y91654D01*
X150551Y90472D01*
D02*
G37*
G36*
X43780D02*
X42598Y73543D01*
X41417Y72362D01*
X40630Y73937D01*
X41811Y90472D01*
X43386Y91654D01*
X43780Y90472D01*
D02*
G37*
G36*
X97087Y90472D02*
X95906Y73543D01*
X94724Y72362D01*
X93937Y73937D01*
X95118Y90472D01*
X96693Y91654D01*
X97087Y90472D01*
D02*
G37*
G36*
X126142Y90079D02*
X124961Y73150D01*
X123779Y71969D01*
X122992Y73543D01*
X124173Y90079D01*
X125748Y91260D01*
X126142Y90079D01*
D02*
G37*
G36*
X19370D02*
X18189Y73150D01*
X17008Y71969D01*
X16220Y73543D01*
X17402Y90079D01*
X18976Y91260D01*
X19370Y90079D01*
D02*
G37*
G36*
X72677Y90079D02*
X71496Y73150D01*
X70315Y71969D01*
X69528Y73543D01*
X70709Y90079D01*
X72284Y91260D01*
X72677Y90079D01*
D02*
G37*
G36*
X146975Y72360D02*
X145794Y71573D01*
X128077D01*
X126109Y72754D01*
X128471Y73541D01*
X146187D01*
X146975Y72360D01*
D02*
G37*
G36*
X40203D02*
X39022Y71573D01*
X21305D01*
X19337Y72754D01*
X21699Y73541D01*
X39416D01*
X40203Y72360D01*
D02*
G37*
G36*
X93510Y72360D02*
X92329Y71573D01*
X74612D01*
X72644Y72754D01*
X75006Y73541D01*
X92723D01*
X93510Y72360D01*
D02*
G37*
G36*
X348819Y76457D02*
X338189D01*
Y69370D01*
X348819D01*
Y68583D01*
X337402D01*
Y69370D01*
Y76457D01*
Y77244D01*
X348819D01*
Y76457D01*
D02*
G37*
G36*
X41811Y69409D02*
X40630Y52480D01*
X39449Y51299D01*
X38802Y52593D01*
X37736Y51882D01*
X20020D01*
X18051Y53064D01*
X20413Y53851D01*
X38130D01*
X38673Y53036D01*
X39843Y69409D01*
X41417Y70591D01*
X41811Y69409D01*
D02*
G37*
G36*
X148583D02*
X147401Y52480D01*
X146221Y51299D01*
X145574Y52593D01*
X144508Y51882D01*
X126791D01*
X124823Y53064D01*
X127185Y53851D01*
X144902D01*
X145445Y53036D01*
X146614Y69409D01*
X148189Y70591D01*
X148583Y69409D01*
D02*
G37*
G36*
X95118Y69409D02*
X93937Y52480D01*
X92756Y51299D01*
X92109Y52593D01*
X91043Y51882D01*
X73327D01*
X71358Y53064D01*
X73721Y53851D01*
X91437D01*
X91980Y53036D01*
X93150Y69409D01*
X94724Y70591D01*
X95118Y69409D01*
D02*
G37*
G36*
X124568Y69611D02*
X123387Y52682D01*
X122206Y51501D01*
X121418Y53076D01*
X122599Y69611D01*
X124174Y70792D01*
X124568Y69611D01*
D02*
G37*
G36*
X17796D02*
X16615Y52682D01*
X15434Y51501D01*
X14647Y53076D01*
X15828Y69611D01*
X17403Y70792D01*
X17796Y69611D01*
D02*
G37*
G36*
X71103Y69611D02*
X69922Y52682D01*
X68741Y51501D01*
X67954Y53076D01*
X69135Y69611D01*
X70710Y70792D01*
X71103Y69611D01*
D02*
G37*
G36*
X348819Y56457D02*
X338189D01*
Y49370D01*
X348819D01*
Y48583D01*
X337402D01*
Y49370D01*
Y56457D01*
Y57244D01*
X348819D01*
Y56457D01*
D02*
G37*
G36*
X220297Y44461D02*
X218171D01*
Y44973D01*
X220297D01*
Y44461D01*
D02*
G37*
G36*
X254016Y44219D02*
X251890D01*
Y44730D01*
X254016D01*
Y44219D01*
D02*
G37*
G36*
X225787Y45000D02*
X226592D01*
Y44488D01*
X225787D01*
Y43679D01*
X225276D01*
Y44488D01*
X224466D01*
Y45000D01*
X225276D01*
Y45805D01*
X225787D01*
Y45000D01*
D02*
G37*
G36*
X259506Y44757D02*
X260311D01*
Y44246D01*
X259506D01*
Y43437D01*
X258994D01*
Y44246D01*
X258185D01*
Y44757D01*
X258994D01*
Y45563D01*
X259506D01*
Y44757D01*
D02*
G37*
G36*
X347244Y40945D02*
X343701D01*
X344488Y42913D01*
X346457D01*
X347244Y40945D01*
D02*
G37*
G36*
X319685D02*
X316142D01*
X316929Y42913D01*
X318898D01*
X319685Y40945D01*
D02*
G37*
D10*
X130338Y142347D02*
G03*
X130338Y142347I-787J0D01*
G01*
D14*
X46339Y54646D02*
G03*
X46339Y54646I-984J0D01*
G01*
X153110D02*
G03*
X153110Y54646I-984J0D01*
G01*
X99646Y54646D02*
G03*
X99646Y54646I-984J0D01*
G01*
D16*
X139563Y139567D02*
G03*
X139563Y139567I-394J0D01*
G01*
M02*
