G04*
G04 #@! TF.GenerationSoftware,Altium Limited,Altium Designer,20.2.6 (244)*
G04*
G04 Layer_Color=2752767*
%FSLAX25Y25*%
%MOIN*%
G70*
G04*
G04 #@! TF.SameCoordinates,357903E5-7464-4FF3-9603-397411888FB0*
G04*
G04*
G04 #@! TF.FilePolarity,Positive*
G04*
G01*
G75*
%ADD70C,0.00200*%
%ADD72C,0.00267*%
D70*
X321365Y168688D02*
Y170288D01*
X322965D01*
Y168688D01*
X321365D01*
Y178688D02*
Y180288D01*
X322965D01*
Y178688D01*
X321365D01*
X311365Y168688D02*
Y170288D01*
X312965D01*
Y168688D01*
X311365D01*
Y178688D02*
Y180288D01*
X312965D01*
Y178688D01*
X311365D01*
X301365Y168688D02*
Y170288D01*
X302965D01*
Y168688D01*
X301365D01*
Y178688D02*
Y180288D01*
X302965D01*
Y178688D01*
X301365D01*
X291365Y168688D02*
Y170288D01*
X292965D01*
Y168688D01*
X291365D01*
Y178688D02*
Y180288D01*
X292965D01*
Y178688D01*
X291365D01*
X281365Y168688D02*
Y170288D01*
X282965D01*
Y168688D01*
X281365D01*
Y178688D02*
Y180288D01*
X282965D01*
Y178688D01*
X281365D01*
X271365Y168688D02*
Y170288D01*
X272965D01*
Y168688D01*
X271365D01*
Y178688D02*
Y180288D01*
X272965D01*
Y178688D01*
X271365D01*
X261365Y168688D02*
Y170288D01*
X262965D01*
Y168688D01*
X261365D01*
Y178688D02*
Y180288D01*
X262965D01*
Y178688D01*
X261365D01*
X251365Y168688D02*
Y170288D01*
X252965D01*
Y168688D01*
X251365D01*
Y178688D02*
Y180288D01*
X252965D01*
Y178688D01*
X251365D01*
X241365Y168688D02*
Y170288D01*
X242965D01*
Y168688D01*
X241365D01*
Y178688D02*
Y180288D01*
X242965D01*
Y178688D01*
X241365D01*
X231365Y168688D02*
Y170288D01*
X232965D01*
Y168688D01*
X231365D01*
Y178688D02*
Y180288D01*
X232965D01*
Y178688D01*
X231365D01*
X221365Y168688D02*
Y170288D01*
X222965D01*
Y168688D01*
X221365D01*
Y178688D02*
Y180288D01*
X222965D01*
Y178688D01*
X221365D01*
X211365Y168688D02*
Y170288D01*
X212965D01*
Y168688D01*
X211365D01*
Y178688D02*
Y180288D01*
X212965D01*
Y178688D01*
X211365D01*
X201365Y168688D02*
Y170288D01*
X202965D01*
Y168688D01*
X201365D01*
Y178688D02*
Y180288D01*
X202965D01*
Y178688D01*
X201365D01*
X191365Y168688D02*
Y170288D01*
X192965D01*
Y168688D01*
X191365D01*
Y178688D02*
Y180288D01*
X192965D01*
Y178688D01*
X191365D01*
X181365Y168688D02*
Y170288D01*
X182965D01*
Y168688D01*
X181365D01*
Y178688D02*
Y180288D01*
X182965D01*
Y178688D01*
X181365D01*
X171365Y168688D02*
Y170288D01*
X172965D01*
Y168688D01*
X171365D01*
Y178688D02*
Y180288D01*
X172965D01*
Y178688D01*
X171365D01*
X161365Y168688D02*
Y170288D01*
X162965D01*
Y168688D01*
X161365D01*
Y178688D02*
Y180288D01*
X162965D01*
Y178688D01*
X161365D01*
X151365Y168688D02*
Y170288D01*
X152965D01*
Y168688D01*
X151365D01*
Y178688D02*
Y180288D01*
X152965D01*
Y178688D01*
X151365D01*
X141365Y168688D02*
Y170288D01*
X142965D01*
Y168688D01*
X141365D01*
Y178688D02*
Y180288D01*
X142965D01*
Y178688D01*
X141365D01*
X131365Y168688D02*
Y170288D01*
X132965D01*
Y168688D01*
X131365D01*
Y178688D02*
Y180288D01*
X132965D01*
Y178688D01*
X131365D01*
X121365Y168688D02*
Y170288D01*
X122965D01*
Y168688D01*
X121365D01*
Y178688D02*
Y180288D01*
X122965D01*
Y178688D01*
X121365D01*
X111365Y168688D02*
Y170288D01*
X112965D01*
Y168688D01*
X111365D01*
Y178688D02*
Y180288D01*
X112965D01*
Y178688D01*
X111365D01*
X101365Y168688D02*
Y170288D01*
X102965D01*
Y168688D01*
X101365D01*
Y178688D02*
Y180288D01*
X102965D01*
Y178688D01*
X101365D01*
X91365Y168688D02*
Y170288D01*
X92965D01*
Y168688D01*
X91365D01*
Y178688D02*
Y180288D01*
X92965D01*
Y178688D01*
X91365D01*
X81365Y168688D02*
Y170288D01*
X82965D01*
Y168688D01*
X81365D01*
Y178688D02*
Y180288D01*
X82965D01*
Y178688D01*
X81365D01*
X71365Y168688D02*
Y170288D01*
X72965D01*
Y168688D01*
X71365D01*
Y178688D02*
Y180288D01*
X72965D01*
Y178688D01*
X71365D01*
X61365Y168688D02*
Y170288D01*
X62965D01*
Y168688D01*
X61365D01*
Y178688D02*
Y180288D01*
X62965D01*
Y178688D01*
X61365D01*
X51365Y168688D02*
Y170288D01*
X52965D01*
Y168688D01*
X51365D01*
Y178688D02*
Y180288D01*
X52965D01*
Y178688D01*
X51365D01*
X41365Y168688D02*
Y170288D01*
X42965D01*
Y168688D01*
X41365D01*
Y178688D02*
Y180288D01*
X42965D01*
Y178688D01*
X41365D01*
X31365Y168688D02*
Y170288D01*
X32965D01*
Y168688D01*
X31365D01*
Y178688D02*
Y180288D01*
X32965D01*
Y178688D01*
X31365D01*
X9213Y41562D02*
X8413Y43162D01*
X10013D01*
X9213Y41562D01*
X19213D02*
X18413Y43162D01*
X20013D01*
X19213Y41562D01*
X29213D02*
X28413Y43162D01*
X30013D01*
X29213Y41562D01*
X39213D02*
X38413Y43162D01*
X40013D01*
X39213Y41562D01*
X49213D02*
X48413Y43162D01*
X50013D01*
X49213Y41562D01*
X9213Y101562D02*
X8413Y103162D01*
X10013D01*
X9213Y101562D01*
X19213D02*
X18413Y103162D01*
X20013D01*
X19213Y101562D01*
X29213D02*
X28413Y103162D01*
X30013D01*
X29213Y101562D01*
X39213D02*
X38413Y103162D01*
X40013D01*
X39213Y101562D01*
X49213D02*
X48413Y103162D01*
X50013D01*
X49213Y101562D01*
X115984Y41562D02*
X115184Y43162D01*
X116784D01*
X115984Y41562D01*
X125984D02*
X125184Y43162D01*
X126784D01*
X125984Y41562D01*
X135984D02*
X135184Y43162D01*
X136784D01*
X135984Y41562D01*
X145984D02*
X145184Y43162D01*
X146784D01*
X145984Y41562D01*
X155984D02*
X155184Y43162D01*
X156784D01*
X155984Y41562D01*
X115984Y101562D02*
X115184Y103162D01*
X116784D01*
X115984Y101562D01*
X125984D02*
X125184Y103162D01*
X126784D01*
X125984Y101562D01*
X135984D02*
X135184Y103162D01*
X136784D01*
X135984Y101562D01*
X145984D02*
X145184Y103162D01*
X146784D01*
X145984Y101562D01*
X155984D02*
X155184Y103162D01*
X156784D01*
X155984Y101562D01*
X31365Y18688D02*
Y20288D01*
X32965D01*
Y18688D01*
X31365D01*
Y8688D02*
Y10288D01*
X32965D01*
Y8688D01*
X31365D01*
X41365Y18688D02*
Y20288D01*
X42965D01*
Y18688D01*
X41365D01*
Y8688D02*
Y10288D01*
X42965D01*
Y8688D01*
X41365D01*
X51365Y18688D02*
Y20288D01*
X52965D01*
Y18688D01*
X51365D01*
Y8688D02*
Y10288D01*
X52965D01*
Y8688D01*
X51365D01*
X61365Y18688D02*
Y20288D01*
X62965D01*
Y18688D01*
X61365D01*
Y8688D02*
Y10288D01*
X62965D01*
Y8688D01*
X61365D01*
X71365Y18688D02*
Y20288D01*
X72965D01*
Y18688D01*
X71365D01*
Y8688D02*
Y10288D01*
X72965D01*
Y8688D01*
X71365D01*
X81365Y18688D02*
Y20288D01*
X82965D01*
Y18688D01*
X81365D01*
Y8688D02*
Y10288D01*
X82965D01*
Y8688D01*
X81365D01*
X91365Y18688D02*
Y20288D01*
X92965D01*
Y18688D01*
X91365D01*
Y8688D02*
Y10288D01*
X92965D01*
Y8688D01*
X91365D01*
X101365Y18688D02*
Y20288D01*
X102965D01*
Y18688D01*
X101365D01*
Y8688D02*
Y10288D01*
X102965D01*
Y8688D01*
X101365D01*
X111365Y18688D02*
Y20288D01*
X112965D01*
Y18688D01*
X111365D01*
Y8688D02*
Y10288D01*
X112965D01*
Y8688D01*
X111365D01*
X121365Y18688D02*
Y20288D01*
X122965D01*
Y18688D01*
X121365D01*
Y8688D02*
Y10288D01*
X122965D01*
Y8688D01*
X121365D01*
X131365Y18688D02*
Y20288D01*
X132965D01*
Y18688D01*
X131365D01*
Y8688D02*
Y10288D01*
X132965D01*
Y8688D01*
X131365D01*
X141365Y18688D02*
Y20288D01*
X142965D01*
Y18688D01*
X141365D01*
Y8688D02*
Y10288D01*
X142965D01*
Y8688D01*
X141365D01*
X151365Y18688D02*
Y20288D01*
X152965D01*
Y18688D01*
X151365D01*
Y8688D02*
Y10288D01*
X152965D01*
Y8688D01*
X151365D01*
X161365Y18688D02*
Y20288D01*
X162965D01*
Y18688D01*
X161365D01*
Y8688D02*
Y10288D01*
X162965D01*
Y8688D01*
X161365D01*
X171365Y18688D02*
Y20288D01*
X172965D01*
Y18688D01*
X171365D01*
Y8688D02*
Y10288D01*
X172965D01*
Y8688D01*
X171365D01*
X181365Y18688D02*
Y20288D01*
X182965D01*
Y18688D01*
X181365D01*
Y8688D02*
Y10288D01*
X182965D01*
Y8688D01*
X181365D01*
X191365Y18688D02*
Y20288D01*
X192965D01*
Y18688D01*
X191365D01*
Y8688D02*
Y10288D01*
X192965D01*
Y8688D01*
X191365D01*
X201365Y18688D02*
Y20288D01*
X202965D01*
Y18688D01*
X201365D01*
Y8688D02*
Y10288D01*
X202965D01*
Y8688D01*
X201365D01*
X211365Y18688D02*
Y20288D01*
X212965D01*
Y18688D01*
X211365D01*
Y8688D02*
Y10288D01*
X212965D01*
Y8688D01*
X211365D01*
X221365Y18688D02*
Y20288D01*
X222965D01*
Y18688D01*
X221365D01*
Y8688D02*
Y10288D01*
X222965D01*
Y8688D01*
X221365D01*
X231365Y18688D02*
Y20288D01*
X232965D01*
Y18688D01*
X231365D01*
Y8688D02*
Y10288D01*
X232965D01*
Y8688D01*
X231365D01*
X241365Y18688D02*
Y20288D01*
X242965D01*
Y18688D01*
X241365D01*
Y8688D02*
Y10288D01*
X242965D01*
Y8688D01*
X241365D01*
X251365Y18688D02*
Y20288D01*
X252965D01*
Y18688D01*
X251365D01*
Y8688D02*
Y10288D01*
X252965D01*
Y8688D01*
X251365D01*
X261365Y18688D02*
Y20288D01*
X262965D01*
Y18688D01*
X261365D01*
Y8688D02*
Y10288D01*
X262965D01*
Y8688D01*
X261365D01*
X271365Y18688D02*
Y20288D01*
X272965D01*
Y18688D01*
X271365D01*
Y8688D02*
Y10288D01*
X272965D01*
Y8688D01*
X271365D01*
X281365Y18688D02*
Y20288D01*
X282965D01*
Y18688D01*
X281365D01*
Y8688D02*
Y10288D01*
X282965D01*
Y8688D01*
X281365D01*
X291365Y18688D02*
Y20288D01*
X292965D01*
Y18688D01*
X291365D01*
Y8688D02*
Y10288D01*
X292965D01*
Y8688D01*
X291365D01*
X301365Y18688D02*
Y20288D01*
X302965D01*
Y18688D01*
X301365D01*
Y8688D02*
Y10288D01*
X302965D01*
Y8688D01*
X301365D01*
X311365Y18688D02*
Y20288D01*
X312965D01*
Y18688D01*
X311365D01*
Y8688D02*
Y10288D01*
X312965D01*
Y8688D01*
X311365D01*
X321365Y18688D02*
Y20288D01*
X322965D01*
Y18688D01*
X321365D01*
Y8688D02*
Y10288D01*
X322965D01*
Y8688D01*
X321365D01*
X62520Y41562D02*
X61720Y43162D01*
X63320D01*
X62520Y41562D01*
X72520D02*
X71720Y43162D01*
X73320D01*
X72520Y41562D01*
X82520D02*
X81720Y43162D01*
X83320D01*
X82520Y41562D01*
X92520D02*
X91720Y43162D01*
X93320D01*
X92520Y41562D01*
X102520D02*
X101720Y43162D01*
X103320D01*
X102520Y41562D01*
X62520Y101562D02*
X61720Y103162D01*
X63320D01*
X62520Y101562D01*
X72520D02*
X71720Y103162D01*
X73320D01*
X72520Y101562D01*
X82520D02*
X81720Y103162D01*
X83320D01*
X82520Y101562D01*
X92520D02*
X91720Y103162D01*
X93320D01*
X92520Y101562D01*
X102520D02*
X101720Y103162D01*
X103320D01*
X102520Y101562D01*
X21654Y126995D02*
X22054Y127395D01*
X22454D01*
X22054Y127795D01*
X22454Y128195D01*
X22054D01*
X21654Y128595D01*
X21254Y128195D01*
X20854D01*
X21254Y127795D01*
X20854Y127395D01*
X21254D01*
X21654Y126995D01*
Y146995D02*
X22054Y147395D01*
X22454D01*
X22054Y147795D01*
X22454Y148195D01*
X22054D01*
X21654Y148595D01*
X21254Y148195D01*
X20854D01*
X21254Y147795D01*
X20854Y147395D01*
X21254D01*
X21654Y146995D01*
X328740Y52035D02*
X329140Y52435D01*
X329540D01*
X329140Y52835D01*
X329540Y53235D01*
X329140D01*
X328740Y53635D01*
X328340Y53235D01*
X327940D01*
X328340Y52835D01*
X327940Y52435D01*
X328340D01*
X328740Y52035D01*
Y72035D02*
X329140Y72435D01*
X329540D01*
X329140Y72835D01*
X329540Y73235D01*
X329140D01*
X328740Y73635D01*
X328340Y73235D01*
X327940D01*
X328340Y72835D01*
X327940Y72435D01*
X328340D01*
X328740Y72035D01*
Y92035D02*
X329140Y92435D01*
X329540D01*
X329140Y92835D01*
X329540Y93235D01*
X329140D01*
X328740Y93635D01*
X328340Y93235D01*
X327940D01*
X328340Y92835D01*
X327940Y92435D01*
X328340D01*
X328740Y92035D01*
X130617Y154712D02*
X131017Y155512D01*
X130617Y156312D01*
X131417Y155912D01*
X132217Y156312D01*
X131817Y155512D01*
X132217Y154712D01*
X131417Y155112D01*
X130617Y154712D01*
X140617D02*
X141017Y155512D01*
X140617Y156312D01*
X141417Y155912D01*
X142217Y156312D01*
X141817Y155512D01*
X142217Y154712D01*
X141417Y155112D01*
X140617Y154712D01*
X150617D02*
X151017Y155512D01*
X150617Y156312D01*
X151417Y155912D01*
X152217Y156312D01*
X151817Y155512D01*
X152217Y154712D01*
X151417Y155112D01*
X150617Y154712D01*
X160617D02*
X161017Y155512D01*
X160617Y156312D01*
X161417Y155912D01*
X162217Y156312D01*
X161817Y155512D01*
X162217Y154712D01*
X161417Y155112D01*
X160617Y154712D01*
X342120Y11411D02*
Y11011D01*
X342920D01*
Y11411D01*
X343320D01*
Y12211D01*
X342920D01*
Y12611D01*
X342120D01*
Y12211D01*
X341720D01*
Y11411D01*
X342120D01*
X11411D02*
Y11011D01*
X12211D01*
Y11411D01*
X12611D01*
Y12211D01*
X12211D01*
Y12611D01*
X11411D01*
Y12211D01*
X11011D01*
Y11411D01*
X11411D01*
X342120Y176765D02*
Y176365D01*
X342920D01*
Y176765D01*
X343320D01*
Y177565D01*
X342920D01*
Y177965D01*
X342120D01*
Y177565D01*
X341720D01*
Y176765D01*
X342120D01*
X11411D02*
Y176365D01*
X12211D01*
Y176765D01*
X12611D01*
Y177565D01*
X12211D01*
Y177965D01*
X11411D01*
Y177565D01*
X11011D01*
Y176765D01*
X11411D01*
X266523Y161700D02*
X266923D01*
X267323Y162100D01*
X267723Y161700D01*
X268123D01*
Y162100D01*
X267723Y162500D01*
X268123Y162900D01*
Y163300D01*
X267723D01*
X267323Y162900D01*
X266923Y163300D01*
X266523D01*
Y162900D01*
X266923Y162500D01*
X266523Y162100D01*
Y161700D01*
X134535Y13767D02*
X134935D01*
X135335Y14167D01*
X135735Y13767D01*
X136135D01*
Y14167D01*
X135735Y14567D01*
X136135Y14967D01*
Y15367D01*
X135735D01*
X135335Y14967D01*
X134935Y15367D01*
X134535D01*
Y14967D01*
X134935Y14567D01*
X134535Y14167D01*
Y13767D01*
X192324Y89190D02*
X192724D01*
X193124Y89590D01*
X193524Y89190D01*
X193924D01*
Y89590D01*
X193524Y89990D01*
X193924Y90390D01*
Y90790D01*
X193524D01*
X193124Y90390D01*
X192724Y90790D01*
X192324D01*
Y90390D01*
X192724Y89990D01*
X192324Y89590D01*
Y89190D01*
X185424Y92013D02*
X185824D01*
X186224Y92413D01*
X186624Y92013D01*
X187024D01*
Y92413D01*
X186624Y92813D01*
X187024Y93213D01*
Y93613D01*
X186624D01*
X186224Y93213D01*
X185824Y93613D01*
X185424D01*
Y93213D01*
X185824Y92813D01*
X185424Y92413D01*
Y92013D01*
X187389Y86208D02*
X187789D01*
X188189Y86608D01*
X188589Y86208D01*
X188989D01*
Y86608D01*
X188589Y87008D01*
X188989Y87408D01*
Y87808D01*
X188589D01*
X188189Y87408D01*
X187789Y87808D01*
X187389D01*
Y87408D01*
X187789Y87008D01*
X187389Y86608D01*
Y86208D01*
X176365Y82225D02*
X176765D01*
X177165Y82625D01*
X177565Y82225D01*
X177965D01*
Y82625D01*
X177565Y83025D01*
X177965Y83425D01*
Y83825D01*
X177565D01*
X177165Y83425D01*
X176765Y83825D01*
X176365D01*
Y83425D01*
X176765Y83025D01*
X176365Y82625D01*
Y82225D01*
X187524Y131102D02*
X187924D01*
X188324Y131502D01*
X188724Y131102D01*
X189124D01*
Y131502D01*
X188724Y131902D01*
X189124Y132302D01*
Y132702D01*
X188724D01*
X188324Y132302D01*
X187924Y132702D01*
X187524D01*
Y132302D01*
X187924Y131902D01*
X187524Y131502D01*
Y131102D01*
X287024Y105502D02*
X287424D01*
X287824Y105902D01*
X288224Y105502D01*
X288624D01*
Y105902D01*
X288224Y106302D01*
X288624Y106702D01*
Y107102D01*
X288224D01*
X287824Y106702D01*
X287424Y107102D01*
X287024D01*
Y106702D01*
X287424Y106302D01*
X287024Y105902D01*
Y105502D01*
X275124Y108102D02*
X275524D01*
X275924Y108502D01*
X276324Y108102D01*
X276724D01*
Y108502D01*
X276324Y108902D01*
X276724Y109302D01*
Y109702D01*
X276324D01*
X275924Y109302D01*
X275524Y109702D01*
X275124D01*
Y109302D01*
X275524Y108902D01*
X275124Y108502D01*
Y108102D01*
X194324Y119202D02*
X194724D01*
X195124Y119602D01*
X195524Y119202D01*
X195924D01*
Y119602D01*
X195524Y120002D01*
X195924Y120402D01*
Y120802D01*
X195524D01*
X195124Y120402D01*
X194724Y120802D01*
X194324D01*
Y120402D01*
X194724Y120002D01*
X194324Y119602D01*
Y119202D01*
X181424Y121602D02*
X181824D01*
X182224Y122002D01*
X182624Y121602D01*
X183024D01*
Y122002D01*
X182624Y122402D01*
X183024Y122802D01*
Y123202D01*
X182624D01*
X182224Y122802D01*
X181824Y123202D01*
X181424D01*
Y122802D01*
X181824Y122402D01*
X181424Y122002D01*
Y121602D01*
X160781Y80085D02*
X161181D01*
X161581Y80485D01*
X161981Y80085D01*
X162381D01*
Y80485D01*
X161981Y80885D01*
X162381Y81285D01*
Y81685D01*
X161981D01*
X161581Y81285D01*
X161181Y81685D01*
X160781D01*
Y81285D01*
X161181Y80885D01*
X160781Y80485D01*
Y80085D01*
X150381Y55499D02*
X150781D01*
X151181Y55899D01*
X151581Y55499D01*
X151981D01*
Y55899D01*
X151581Y56299D01*
X151981Y56699D01*
Y57099D01*
X151581D01*
X151181Y56699D01*
X150781Y57099D01*
X150381D01*
Y56699D01*
X150781Y56299D01*
X150381Y55899D01*
Y55499D01*
X89472Y94762D02*
X89872D01*
X90272Y95162D01*
X90671Y94762D01*
X91071D01*
Y95162D01*
X90671Y95562D01*
X91071Y95962D01*
Y96362D01*
X90671D01*
X90272Y95962D01*
X89872Y96362D01*
X89472D01*
Y95962D01*
X89872Y95562D01*
X89472Y95162D01*
Y94762D01*
X261524Y158602D02*
X261924D01*
X262324Y159002D01*
X262724Y158602D01*
X263124D01*
Y159002D01*
X262724Y159402D01*
X263124Y159802D01*
Y160202D01*
X262724D01*
X262324Y159802D01*
X261924Y160202D01*
X261524D01*
Y159802D01*
X261924Y159402D01*
X261524Y159002D01*
Y158602D01*
X276624Y163023D02*
X277024D01*
X277424Y163423D01*
X277824Y163023D01*
X278224D01*
Y163423D01*
X277824Y163823D01*
X278224Y164223D01*
Y164623D01*
X277824D01*
X277424Y164223D01*
X277024Y164623D01*
X276624D01*
Y164223D01*
X277024Y163823D01*
X276624Y163423D01*
Y163023D01*
X198024Y97402D02*
X198424D01*
X198824Y97802D01*
X199224Y97402D01*
X199624D01*
Y97802D01*
X199224Y98202D01*
X199624Y98602D01*
Y99002D01*
X199224D01*
X198824Y98602D01*
X198424Y99002D01*
X198024D01*
Y98602D01*
X198424Y98202D01*
X198024Y97802D01*
Y97402D01*
X306324Y119502D02*
X306724D01*
X307124Y119902D01*
X307524Y119502D01*
X307924D01*
Y119902D01*
X307524Y120302D01*
X307924Y120702D01*
Y121102D01*
X307524D01*
X307124Y120702D01*
X306724Y121102D01*
X306324D01*
Y120702D01*
X306724Y120302D01*
X306324Y119902D01*
Y119502D01*
X187824Y93802D02*
X188224D01*
X188624Y94202D01*
X189024Y93802D01*
X189424D01*
Y94202D01*
X189024Y94602D01*
X189424Y95002D01*
Y95402D01*
X189024D01*
X188624Y95002D01*
X188224Y95402D01*
X187824D01*
Y95002D01*
X188224Y94602D01*
X187824Y94202D01*
Y93802D01*
X183824Y38602D02*
X184224D01*
X184624Y39002D01*
X185024Y38602D01*
X185424D01*
Y39002D01*
X185024Y39402D01*
X185424Y39802D01*
Y40202D01*
X185024D01*
X184624Y39802D01*
X184224Y40202D01*
X183824D01*
Y39802D01*
X184224Y39402D01*
X183824Y39002D01*
Y38602D01*
X5964Y67743D02*
X6364D01*
X6764Y68143D01*
X7164Y67743D01*
X7564D01*
Y68143D01*
X7164Y68543D01*
X7564Y68943D01*
Y69343D01*
X7164D01*
X6764Y68943D01*
X6364Y69343D01*
X5964D01*
Y68943D01*
X6364Y68543D01*
X5964Y68143D01*
Y67743D01*
X6011Y82783D02*
X6411D01*
X6811Y83183D01*
X7211Y82783D01*
X7611D01*
Y83183D01*
X7211Y83583D01*
X7611Y83983D01*
Y84383D01*
X7211D01*
X6811Y83983D01*
X6411Y84383D01*
X6011D01*
Y83983D01*
X6411Y83583D01*
X6011Y83183D01*
Y82783D01*
X245524Y137402D02*
X245924D01*
X246324Y137802D01*
X246724Y137402D01*
X247124D01*
Y137802D01*
X246724Y138202D01*
X247124Y138602D01*
Y139002D01*
X246724D01*
X246324Y138602D01*
X245924Y139002D01*
X245524D01*
Y138602D01*
X245924Y138202D01*
X245524Y137802D01*
Y137402D01*
X240124Y36402D02*
X240524D01*
X240924Y36802D01*
X241324Y36402D01*
X241724D01*
Y36802D01*
X241324Y37202D01*
X241724Y37602D01*
Y38002D01*
X241324D01*
X240924Y37602D01*
X240524Y38002D01*
X240124D01*
Y37602D01*
X240524Y37202D01*
X240124Y36802D01*
Y36402D01*
X255724Y52202D02*
X256124D01*
X256524Y52602D01*
X256924Y52202D01*
X257324D01*
Y52602D01*
X256924Y53002D01*
X257324Y53402D01*
Y53802D01*
X256924D01*
X256524Y53402D01*
X256124Y53802D01*
X255724D01*
Y53402D01*
X256124Y53002D01*
X255724Y52602D01*
Y52202D01*
X297298Y92376D02*
X297698D01*
X298098Y92776D01*
X298498Y92376D01*
X298898D01*
Y92776D01*
X298498Y93176D01*
X298898Y93576D01*
Y93976D01*
X298498D01*
X298098Y93576D01*
X297698Y93976D01*
X297298D01*
Y93576D01*
X297698Y93176D01*
X297298Y92776D01*
Y92376D01*
X334633Y112979D02*
X335033D01*
X335433Y113380D01*
X335833Y112979D01*
X336233D01*
Y113380D01*
X335833Y113779D01*
X336233Y114180D01*
Y114579D01*
X335833D01*
X335433Y114180D01*
X335033Y114579D01*
X334633D01*
Y114180D01*
X335033Y113779D01*
X334633Y113380D01*
Y112979D01*
X270024Y101902D02*
X270424D01*
X270824Y102302D01*
X271224Y101902D01*
X271624D01*
Y102302D01*
X271224Y102702D01*
X271624Y103102D01*
Y103502D01*
X271224D01*
X270824Y103102D01*
X270424Y103502D01*
X270024D01*
Y103102D01*
X270424Y102702D01*
X270024Y102302D01*
Y101902D01*
X173224Y89302D02*
X173624D01*
X174024Y89702D01*
X174424Y89302D01*
X174824D01*
Y89702D01*
X174424Y90102D01*
X174824Y90502D01*
Y90902D01*
X174424D01*
X174024Y90502D01*
X173624Y90902D01*
X173224D01*
Y90502D01*
X173624Y90102D01*
X173224Y89702D01*
Y89302D01*
X180524Y95702D02*
X180924D01*
X181324Y96102D01*
X181724Y95702D01*
X182124D01*
Y96102D01*
X181724Y96502D01*
X182124Y96902D01*
Y97302D01*
X181724D01*
X181324Y96902D01*
X180924Y97302D01*
X180524D01*
Y96902D01*
X180924Y96502D01*
X180524Y96102D01*
Y95702D01*
X170724Y121202D02*
X171124D01*
X171524Y121602D01*
X171924Y121202D01*
X172324D01*
Y121602D01*
X171924Y122002D01*
X172324Y122402D01*
Y122802D01*
X171924D01*
X171524Y122402D01*
X171124Y122802D01*
X170724D01*
Y122402D01*
X171124Y122002D01*
X170724Y121602D01*
Y121202D01*
X262624Y150402D02*
X263024D01*
X263424Y150802D01*
X263824Y150402D01*
X264224D01*
Y150802D01*
X263824Y151202D01*
X264224Y151602D01*
Y152002D01*
X263824D01*
X263424Y151602D01*
X263024Y152002D01*
X262624D01*
Y151602D01*
X263024Y151202D01*
X262624Y150802D01*
Y150402D01*
X256224Y150413D02*
X256624D01*
X257024Y150813D01*
X257424Y150413D01*
X257824D01*
Y150813D01*
X257424Y151213D01*
X257824Y151613D01*
Y152013D01*
X257424D01*
X257024Y151613D01*
X256624Y152013D01*
X256224D01*
Y151613D01*
X256624Y151213D01*
X256224Y150813D01*
Y150413D01*
X259424Y150502D02*
X259824D01*
X260224Y150902D01*
X260624Y150502D01*
X261024D01*
Y150902D01*
X260624Y151302D01*
X261024Y151702D01*
Y152102D01*
X260624D01*
X260224Y151702D01*
X259824Y152102D01*
X259424D01*
Y151702D01*
X259824Y151302D01*
X259424Y150902D01*
Y150502D01*
X293388Y163688D02*
X293788D01*
X294188Y164088D01*
X294588Y163688D01*
X294988D01*
Y164088D01*
X294588Y164488D01*
X294988Y164888D01*
Y165288D01*
X294588D01*
X294188Y164888D01*
X293788Y165288D01*
X293388D01*
Y164888D01*
X293788Y164488D01*
X293388Y164088D01*
Y163688D01*
X296324Y160302D02*
X296724D01*
X297124Y160702D01*
X297524Y160302D01*
X297924D01*
Y160702D01*
X297524Y161102D01*
X297924Y161502D01*
Y161902D01*
X297524D01*
X297124Y161502D01*
X296724Y161902D01*
X296324D01*
Y161502D01*
X296724Y161102D01*
X296324Y160702D01*
Y160302D01*
X254024Y160502D02*
X254424D01*
X254824Y160902D01*
X255224Y160502D01*
X255624D01*
Y160902D01*
X255224Y161302D01*
X255624Y161702D01*
Y162102D01*
X255224D01*
X254824Y161702D01*
X254424Y162102D01*
X254024D01*
Y161702D01*
X254424Y161302D01*
X254024Y160902D01*
Y160502D01*
X240924Y118802D02*
X241324D01*
X241724Y119202D01*
X242124Y118802D01*
X242524D01*
Y119202D01*
X242124Y119602D01*
X242524Y120002D01*
Y120402D01*
X242124D01*
X241724Y120002D01*
X241324Y120402D01*
X240924D01*
Y120002D01*
X241324Y119602D01*
X240924Y119202D01*
Y118802D01*
X249924Y156802D02*
X250324D01*
X250724Y157202D01*
X251124Y156802D01*
X251524D01*
Y157202D01*
X251124Y157602D01*
X251524Y158002D01*
Y158402D01*
X251124D01*
X250724Y158002D01*
X250324Y158402D01*
X249924D01*
Y158002D01*
X250324Y157602D01*
X249924Y157202D01*
Y156802D01*
X239824Y162502D02*
X240224D01*
X240624Y162902D01*
X241024Y162502D01*
X241424D01*
Y162902D01*
X241024Y163302D01*
X241424Y163702D01*
Y164102D01*
X241024D01*
X240624Y163702D01*
X240224Y164102D01*
X239824D01*
Y163702D01*
X240224Y163302D01*
X239824Y162902D01*
Y162502D01*
X246924Y114502D02*
X247324D01*
X247724Y114902D01*
X248124Y114502D01*
X248524D01*
Y114902D01*
X248124Y115302D01*
X248524Y115702D01*
Y116102D01*
X248124D01*
X247724Y115702D01*
X247324Y116102D01*
X246924D01*
Y115702D01*
X247324Y115302D01*
X246924Y114902D01*
Y114502D01*
X203124Y137702D02*
X203524D01*
X203924Y138102D01*
X204324Y137702D01*
X204724D01*
Y138102D01*
X204324Y138502D01*
X204724Y138902D01*
Y139302D01*
X204324D01*
X203924Y138902D01*
X203524Y139302D01*
X203124D01*
Y138902D01*
X203524Y138502D01*
X203124Y138102D01*
Y137702D01*
X221024Y103502D02*
X221424D01*
X221824Y103902D01*
X222224Y103502D01*
X222624D01*
Y103902D01*
X222224Y104302D01*
X222624Y104702D01*
Y105102D01*
X222224D01*
X221824Y104702D01*
X221424Y105102D01*
X221024D01*
Y104702D01*
X221424Y104302D01*
X221024Y103902D01*
Y103502D01*
X200724Y132802D02*
X201124D01*
X201524Y133202D01*
X201924Y132802D01*
X202324D01*
Y133202D01*
X201924Y133602D01*
X202324Y134002D01*
Y134402D01*
X201924D01*
X201524Y134002D01*
X201124Y134402D01*
X200724D01*
Y134002D01*
X201124Y133602D01*
X200724Y133202D01*
Y132802D01*
X167704Y109436D02*
X168104D01*
X168504Y109836D01*
X168904Y109436D01*
X169304D01*
Y109836D01*
X168904Y110236D01*
X169304Y110636D01*
Y111036D01*
X168904D01*
X168504Y110636D01*
X168104Y111036D01*
X167704D01*
Y110636D01*
X168104Y110236D01*
X167704Y109836D01*
Y109436D01*
X180524Y150502D02*
X180924D01*
X181324Y150902D01*
X181724Y150502D01*
X182124D01*
Y150902D01*
X181724Y151302D01*
X182124Y151702D01*
Y152102D01*
X181724D01*
X181324Y151702D01*
X180924Y152102D01*
X180524D01*
Y151702D01*
X180924Y151302D01*
X180524Y150902D01*
Y150502D01*
X176124Y150102D02*
X176524D01*
X176924Y150502D01*
X177324Y150102D01*
X177724D01*
Y150502D01*
X177324Y150902D01*
X177724Y151302D01*
Y151702D01*
X177324D01*
X176924Y151302D01*
X176524Y151702D01*
X176124D01*
Y151302D01*
X176524Y150902D01*
X176124Y150502D01*
Y150102D01*
X136324Y135402D02*
X136724D01*
X137124Y135802D01*
X137524Y135402D01*
X137924D01*
Y135802D01*
X137524Y136202D01*
X137924Y136602D01*
Y137002D01*
X137524D01*
X137124Y136602D01*
X136724Y137002D01*
X136324D01*
Y136602D01*
X136724Y136202D01*
X136324Y135802D01*
Y135402D01*
X55624Y60202D02*
X56024D01*
X56424Y60602D01*
X56824Y60202D01*
X57224D01*
Y60602D01*
X56824Y61002D01*
X57224Y61402D01*
Y61802D01*
X56824D01*
X56424Y61402D01*
X56024Y61802D01*
X55624D01*
Y61402D01*
X56024Y61002D01*
X55624Y60602D01*
Y60202D01*
X155024Y47102D02*
X155424D01*
X155824Y47502D01*
X156224Y47102D01*
X156624D01*
Y47502D01*
X156224Y47902D01*
X156624Y48302D01*
Y48702D01*
X156224D01*
X155824Y48302D01*
X155424Y48702D01*
X155024D01*
Y48302D01*
X155424Y47902D01*
X155024Y47502D01*
Y47102D01*
X111524Y82702D02*
X111924D01*
X112324Y83102D01*
X112724Y82702D01*
X113124D01*
Y83102D01*
X112724Y83502D01*
X113124Y83902D01*
Y84302D01*
X112724D01*
X112324Y83902D01*
X111924Y84302D01*
X111524D01*
Y83902D01*
X111924Y83502D01*
X111524Y83102D01*
Y82702D01*
X101024Y60902D02*
X101424D01*
X101824Y61302D01*
X102224Y60902D01*
X102624D01*
Y61302D01*
X102224Y61702D01*
X102624Y62102D01*
Y62502D01*
X102224D01*
X101824Y62102D01*
X101424Y62502D01*
X101024D01*
Y62102D01*
X101424Y61702D01*
X101024Y61302D01*
Y60902D01*
X71424Y77202D02*
X71824D01*
X72224Y77602D01*
X72624Y77202D01*
X73024D01*
Y77602D01*
X72624Y78002D01*
X73024Y78402D01*
Y78802D01*
X72624D01*
X72224Y78402D01*
X71824Y78802D01*
X71424D01*
Y78402D01*
X71824Y78002D01*
X71424Y77602D01*
Y77202D01*
X74124Y52602D02*
X74524D01*
X74924Y53002D01*
X75324Y52602D01*
X75724D01*
Y53002D01*
X75324Y53402D01*
X75724Y53802D01*
Y54202D01*
X75324D01*
X74924Y53802D01*
X74524Y54202D01*
X74124D01*
Y53802D01*
X74524Y53402D01*
X74124Y53002D01*
Y52602D01*
X74924Y57502D02*
X75324D01*
X75724Y57902D01*
X76124Y57502D01*
X76524D01*
Y57902D01*
X76124Y58302D01*
X76524Y58702D01*
Y59102D01*
X76124D01*
X75724Y58702D01*
X75324Y59102D01*
X74924D01*
Y58702D01*
X75324Y58302D01*
X74924Y57902D01*
Y57502D01*
X71624Y55202D02*
X72024D01*
X72424Y55602D01*
X72824Y55202D01*
X73224D01*
Y55602D01*
X72824Y56002D01*
X73224Y56402D01*
Y56802D01*
X72824D01*
X72424Y56402D01*
X72024Y56802D01*
X71624D01*
Y56402D01*
X72024Y56002D01*
X71624Y55602D01*
Y55202D01*
X58924Y68202D02*
X59324D01*
X59724Y68602D01*
X60124Y68202D01*
X60524D01*
Y68602D01*
X60124Y69002D01*
X60524Y69402D01*
Y69802D01*
X60124D01*
X59724Y69402D01*
X59324Y69802D01*
X58924D01*
Y69402D01*
X59324Y69002D01*
X58924Y68602D01*
Y68202D01*
X47724Y60202D02*
X48124D01*
X48524Y60602D01*
X48924Y60202D01*
X49324D01*
Y60602D01*
X48924Y61002D01*
X49324Y61402D01*
Y61802D01*
X48924D01*
X48524Y61402D01*
X48124Y61802D01*
X47724D01*
Y61402D01*
X48124Y61002D01*
X47724Y60602D01*
Y60202D01*
X155424Y113402D02*
X155824D01*
X156224Y113802D01*
X156624Y113402D01*
X157024D01*
Y113802D01*
X156624Y114202D01*
X157024Y114602D01*
Y115002D01*
X156624D01*
X156224Y114602D01*
X155824Y115002D01*
X155424D01*
Y114602D01*
X155824Y114202D01*
X155424Y113802D01*
Y113402D01*
X51024Y124102D02*
X51424D01*
X51824Y124502D01*
X52224Y124102D01*
X52624D01*
Y124502D01*
X52224Y124902D01*
X52624Y125302D01*
Y125702D01*
X52224D01*
X51824Y125302D01*
X51424Y125702D01*
X51024D01*
Y125302D01*
X51424Y124902D01*
X51024Y124502D01*
Y124102D01*
X124624Y60202D02*
X125024D01*
X125424Y60602D01*
X125824Y60202D01*
X126224D01*
Y60602D01*
X125824Y61002D01*
X126224Y61402D01*
Y61802D01*
X125824D01*
X125424Y61402D01*
X125024Y61802D01*
X124624D01*
Y61402D01*
X125024Y61002D01*
X124624Y60602D01*
Y60202D01*
X124724Y54902D02*
X125124D01*
X125524Y55302D01*
X125924Y54902D01*
X126324D01*
Y55302D01*
X125924Y55702D01*
X126324Y56102D01*
Y56502D01*
X125924D01*
X125524Y56102D01*
X125124Y56502D01*
X124724D01*
Y56102D01*
X125124Y55702D01*
X124724Y55302D01*
Y54902D01*
X124397Y77940D02*
X124797D01*
X125197Y78340D01*
X125597Y77940D01*
X125997D01*
Y78340D01*
X125597Y78740D01*
X125997Y79140D01*
Y79540D01*
X125597D01*
X125197Y79140D01*
X124797Y79540D01*
X124397D01*
Y79140D01*
X124797Y78740D01*
X124397Y78340D01*
Y77940D01*
X111798Y67704D02*
X112198D01*
X112598Y68104D01*
X112998Y67704D01*
X113398D01*
Y68104D01*
X112998Y68504D01*
X113398Y68904D01*
Y69304D01*
X112998D01*
X112598Y68904D01*
X112198Y69304D01*
X111798D01*
Y68904D01*
X112198Y68504D01*
X111798Y68104D01*
Y67704D01*
X112192Y57468D02*
X112592D01*
X112992Y57868D01*
X113392Y57468D01*
X113792D01*
Y57868D01*
X113392Y58268D01*
X113792Y58668D01*
Y59068D01*
X113392D01*
X112992Y58668D01*
X112592Y59068D01*
X112192D01*
Y58668D01*
X112592Y58268D01*
X112192Y57868D01*
Y57468D01*
X21208Y52783D02*
X21608D01*
X22008Y53183D01*
X22408Y52783D01*
X22808D01*
Y53183D01*
X22408Y53583D01*
X22808Y53983D01*
Y54383D01*
X22408D01*
X22008Y53983D01*
X21608Y54383D01*
X21208D01*
Y53983D01*
X21608Y53583D01*
X21208Y53183D01*
Y52783D01*
X20460Y57783D02*
X20860D01*
X21260Y58183D01*
X21660Y57783D01*
X22060D01*
Y58183D01*
X21660Y58583D01*
X22060Y58983D01*
Y59383D01*
X21660D01*
X21260Y58983D01*
X20860Y59383D01*
X20460D01*
Y58983D01*
X20860Y58583D01*
X20460Y58183D01*
Y57783D01*
X15724Y76402D02*
X16124D01*
X16524Y76802D01*
X16924Y76402D01*
X17324D01*
Y76802D01*
X16924Y77202D01*
X17324Y77602D01*
Y78002D01*
X16924D01*
X16524Y77602D01*
X16124Y78002D01*
X15724D01*
Y77602D01*
X16124Y77202D01*
X15724Y76802D01*
Y76402D01*
X71609Y62987D02*
X72009D01*
X72409Y63387D01*
X72809Y62987D01*
X73209D01*
Y63387D01*
X72809Y63787D01*
X73209Y64187D01*
Y64587D01*
X72809D01*
X72409Y64187D01*
X72009Y64587D01*
X71609D01*
Y64187D01*
X72009Y63787D01*
X71609Y63387D01*
Y62987D01*
X213624Y41202D02*
X214024D01*
X214424Y41602D01*
X214824Y41202D01*
X215224D01*
Y41602D01*
X214824Y42002D01*
X215224Y42402D01*
Y42802D01*
X214824D01*
X214424Y42402D01*
X214024Y42802D01*
X213624D01*
Y42402D01*
X214024Y42002D01*
X213624Y41602D01*
Y41202D01*
X160124Y31002D02*
X160524D01*
X160924Y31402D01*
X161324Y31002D01*
X161724D01*
Y31402D01*
X161324Y31802D01*
X161724Y32202D01*
Y32602D01*
X161324D01*
X160924Y32202D01*
X160524Y32602D01*
X160124D01*
Y32202D01*
X160524Y31802D01*
X160124Y31402D01*
Y31002D01*
X295021Y74265D02*
X295421D01*
X295821Y74665D01*
X296221Y74265D01*
X296621D01*
Y74665D01*
X296221Y75065D01*
X296621Y75465D01*
Y75865D01*
X296221D01*
X295821Y75465D01*
X295421Y75865D01*
X295021D01*
Y75465D01*
X295421Y75065D01*
X295021Y74665D01*
Y74265D01*
X299424Y60202D02*
X299824D01*
X300224Y60602D01*
X300624Y60202D01*
X301024D01*
Y60602D01*
X300624Y61002D01*
X301024Y61402D01*
Y61802D01*
X300624D01*
X300224Y61402D01*
X299824Y61802D01*
X299424D01*
Y61402D01*
X299824Y61002D01*
X299424Y60602D01*
Y60202D01*
X284224Y73802D02*
X284624D01*
X285024Y74202D01*
X285424Y73802D01*
X285824D01*
Y74202D01*
X285424Y74602D01*
X285824Y75002D01*
Y75402D01*
X285424D01*
X285024Y75002D01*
X284624Y75402D01*
X284224D01*
Y75002D01*
X284624Y74602D01*
X284224Y74202D01*
Y73802D01*
X288924Y78502D02*
X289324D01*
X289724Y78902D01*
X290124Y78502D01*
X290524D01*
Y78902D01*
X290124Y79302D01*
X290524Y79702D01*
Y80102D01*
X290124D01*
X289724Y79702D01*
X289324Y80102D01*
X288924D01*
Y79702D01*
X289324Y79302D01*
X288924Y78902D01*
Y78502D01*
X286545Y40323D02*
X286945D01*
X287345Y40723D01*
X287745Y40323D01*
X288145D01*
Y40723D01*
X287745Y41123D01*
X288145Y41523D01*
Y41923D01*
X287745D01*
X287345Y41523D01*
X286945Y41923D01*
X286545D01*
Y41523D01*
X286945Y41123D01*
X286545Y40723D01*
Y40323D01*
X205893Y149987D02*
X206293D01*
X206693Y150387D01*
X207093Y149987D01*
X207493D01*
Y150387D01*
X207093Y150787D01*
X207493Y151187D01*
Y151587D01*
X207093D01*
X206693Y151187D01*
X206293Y151587D01*
X205893D01*
Y151187D01*
X206293Y150787D01*
X205893Y150387D01*
Y149987D01*
X272428Y153924D02*
X272828D01*
X273228Y154324D01*
X273628Y153924D01*
X274028D01*
Y154324D01*
X273628Y154724D01*
X274028Y155124D01*
Y155524D01*
X273628D01*
X273228Y155124D01*
X272828Y155524D01*
X272428D01*
Y155124D01*
X272828Y154724D01*
X272428Y154324D01*
Y153924D01*
X164636Y116129D02*
X165036D01*
X165436Y116529D01*
X165836Y116129D01*
X166236D01*
Y116529D01*
X165836Y116929D01*
X166236Y117329D01*
Y117729D01*
X165836D01*
X165436Y117329D01*
X165036Y117729D01*
X164636D01*
Y117329D01*
X165036Y116929D01*
X164636Y116529D01*
Y116129D01*
X149987Y35421D02*
X150387D01*
X150787Y35820D01*
X151187Y35421D01*
X151587D01*
Y35820D01*
X151187Y36220D01*
X151587Y36621D01*
Y37020D01*
X151187D01*
X150787Y36621D01*
X150387Y37020D01*
X149987D01*
Y36621D01*
X150387Y36220D01*
X149987Y35820D01*
Y35421D01*
X57861Y57468D02*
X58261D01*
X58661Y57868D01*
X59061Y57468D01*
X59461D01*
Y57868D01*
X59061Y58268D01*
X59461Y58668D01*
Y59068D01*
X59061D01*
X58661Y58668D01*
X58261Y59068D01*
X57861D01*
Y58668D01*
X58261Y58268D01*
X57861Y57868D01*
Y57468D01*
X108649Y61011D02*
X109049D01*
X109449Y61411D01*
X109849Y61011D01*
X110249D01*
Y61411D01*
X109849Y61811D01*
X110249Y62211D01*
Y62611D01*
X109849D01*
X109449Y62211D01*
X109049Y62611D01*
X108649D01*
Y62211D01*
X109049Y61811D01*
X108649Y61411D01*
Y61011D01*
X67924Y116702D02*
X68324D01*
X68724Y117102D01*
X69124Y116702D01*
X69524D01*
Y117102D01*
X69124Y117502D01*
X69524Y117902D01*
Y118302D01*
X69124D01*
X68724Y117902D01*
X68324Y118302D01*
X67924D01*
Y117902D01*
X68324Y117502D01*
X67924Y117102D01*
Y116702D01*
X61024Y123602D02*
X61424D01*
X61824Y124002D01*
X62224Y123602D01*
X62624D01*
Y124002D01*
X62224Y124402D01*
X62624Y124802D01*
Y125202D01*
X62224D01*
X61824Y124802D01*
X61424Y125202D01*
X61024D01*
Y124802D01*
X61424Y124402D01*
X61024Y124002D01*
Y123602D01*
X278334Y146050D02*
X278734D01*
X279134Y146450D01*
X279534Y146050D01*
X279934D01*
Y146450D01*
X279534Y146850D01*
X279934Y147250D01*
Y147650D01*
X279534D01*
X279134Y147250D01*
X278734Y147650D01*
X278334D01*
Y147250D01*
X278734Y146850D01*
X278334Y146450D01*
Y146050D01*
X286995D02*
X287395D01*
X287795Y146450D01*
X288195Y146050D01*
X288595D01*
Y146450D01*
X288195Y146850D01*
X288595Y147250D01*
Y147650D01*
X288195D01*
X287795Y147250D01*
X287395Y147650D01*
X286995D01*
Y147250D01*
X287395Y146850D01*
X286995Y146450D01*
Y146050D01*
X309436Y131877D02*
X309836D01*
X310236Y132277D01*
X310636Y131877D01*
X311036D01*
Y132277D01*
X310636Y132677D01*
X311036Y133077D01*
Y133477D01*
X310636D01*
X310236Y133077D01*
X309836Y133477D01*
X309436D01*
Y133077D01*
X309836Y132677D01*
X309436Y132277D01*
Y131877D01*
X319279Y123846D02*
X319679D01*
X320079Y124246D01*
X320479Y123846D01*
X320879D01*
Y124246D01*
X320479Y124646D01*
X320879Y125046D01*
Y125446D01*
X320479D01*
X320079Y125046D01*
X319679Y125446D01*
X319279D01*
Y125046D01*
X319679Y124646D01*
X319279Y124246D01*
Y123846D01*
X324161Y120302D02*
X324561D01*
X324961Y120702D01*
X325361Y120302D01*
X325761D01*
Y120702D01*
X325361Y121102D01*
X325761Y121502D01*
Y121902D01*
X325361D01*
X324961Y121502D01*
X324561Y121902D01*
X324161D01*
Y121502D01*
X324561Y121102D01*
X324161Y120702D01*
Y120302D01*
X274003Y149987D02*
X274403D01*
X274803Y150387D01*
X275203Y149987D01*
X275603D01*
Y150387D01*
X275203Y150787D01*
X275603Y151187D01*
Y151587D01*
X275203D01*
X274803Y151187D01*
X274403Y151587D01*
X274003D01*
Y151187D01*
X274403Y150787D01*
X274003Y150387D01*
Y149987D01*
X302350Y143295D02*
X302750D01*
X303150Y143695D01*
X303550Y143295D01*
X303950D01*
Y143695D01*
X303550Y144095D01*
X303950Y144495D01*
Y144895D01*
X303550D01*
X303150Y144495D01*
X302750Y144895D01*
X302350D01*
Y144495D01*
X302750Y144095D01*
X302350Y143695D01*
Y143295D01*
X28727Y94476D02*
X29127D01*
X29527Y94876D01*
X29927Y94476D01*
X30327D01*
Y94876D01*
X29927Y95276D01*
X30327Y95676D01*
Y96076D01*
X29927D01*
X29527Y95676D01*
X29127Y96076D01*
X28727D01*
Y95676D01*
X29127Y95276D01*
X28727Y94876D01*
Y94476D01*
X59161Y82783D02*
X59561D01*
X59961Y83183D01*
X60361Y82783D01*
X60761D01*
Y83183D01*
X60361Y83583D01*
X60761Y83983D01*
Y84383D01*
X60361D01*
X59961Y83983D01*
X59561Y84383D01*
X59161D01*
Y83983D01*
X59561Y83583D01*
X59161Y83183D01*
Y82783D01*
X81877Y94476D02*
X82277D01*
X82677Y94876D01*
X83077Y94476D01*
X83477D01*
Y94876D01*
X83077Y95276D01*
X83477Y95676D01*
Y96076D01*
X83077D01*
X82677Y95676D01*
X82277Y96076D01*
X81877D01*
Y95676D01*
X82277Y95276D01*
X81877Y94876D01*
Y94476D01*
X135027Y94476D02*
X135427D01*
X135827Y94876D01*
X136227Y94476D01*
X136627D01*
Y94876D01*
X136227Y95276D01*
X136627Y95676D01*
Y96076D01*
X136227D01*
X135827Y95676D01*
X135427Y96076D01*
X135027D01*
Y95676D01*
X135427Y95276D01*
X135027Y94876D01*
Y94476D01*
X244524Y123802D02*
X244924D01*
X245324Y124202D01*
X245724Y123802D01*
X246124D01*
Y124202D01*
X245724Y124602D01*
X246124Y125002D01*
Y125402D01*
X245724D01*
X245324Y125002D01*
X244924Y125402D01*
X244524D01*
Y125002D01*
X244924Y124602D01*
X244524Y124202D01*
Y123802D01*
X134043Y143885D02*
X134443D01*
X134843Y144285D01*
X135243Y143885D01*
X135643D01*
Y144285D01*
X135243Y144685D01*
X135643Y145085D01*
Y145485D01*
X135243D01*
X134843Y145085D01*
X134443Y145485D01*
X134043D01*
Y145085D01*
X134443Y144685D01*
X134043Y144285D01*
Y143885D01*
X231090Y40145D02*
X231490D01*
X231890Y40545D01*
X232290Y40145D01*
X232690D01*
Y40545D01*
X232290Y40945D01*
X232690Y41345D01*
Y41745D01*
X232290D01*
X231890Y41345D01*
X231490Y41745D01*
X231090D01*
Y41345D01*
X231490Y40945D01*
X231090Y40545D01*
Y40145D01*
X275105Y47402D02*
X275505D01*
X275905Y47802D01*
X276305Y47402D01*
X276705D01*
Y47802D01*
X276305Y48202D01*
X276705Y48602D01*
Y49002D01*
X276305D01*
X275905Y48602D01*
X275505Y49002D01*
X275105D01*
Y48602D01*
X275505Y48202D01*
X275105Y47802D01*
Y47402D01*
X184824Y97702D02*
X185224D01*
X185624Y98102D01*
X186024Y97702D01*
X186424D01*
Y98102D01*
X186024Y98502D01*
X186424Y98902D01*
Y99302D01*
X186024D01*
X185624Y98902D01*
X185224Y99302D01*
X184824D01*
Y98902D01*
X185224Y98502D01*
X184824Y98102D01*
Y97702D01*
X180124Y145702D02*
X180524D01*
X180924Y146102D01*
X181324Y145702D01*
X181724D01*
Y146102D01*
X181324Y146502D01*
X181724Y146902D01*
Y147302D01*
X181324D01*
X180924Y146902D01*
X180524Y147302D01*
X180124D01*
Y146902D01*
X180524Y146502D01*
X180124Y146102D01*
Y145702D01*
X200224Y95002D02*
X200624D01*
X201024Y95402D01*
X201424Y95002D01*
X201824D01*
Y95402D01*
X201424Y95802D01*
X201824Y96202D01*
Y96602D01*
X201424D01*
X201024Y96202D01*
X200624Y96602D01*
X200224D01*
Y96202D01*
X200624Y95802D01*
X200224Y95402D01*
Y95002D01*
X166523Y25578D02*
X166923D01*
X167323Y25978D01*
X167723Y25578D01*
X168123D01*
Y25978D01*
X167723Y26378D01*
X168123Y26778D01*
Y27178D01*
X167723D01*
X167323Y26778D01*
X166923Y27178D01*
X166523D01*
Y26778D01*
X166923Y26378D01*
X166523Y25978D01*
Y25578D01*
X182271D02*
X182671D01*
X183071Y25978D01*
X183471Y25578D01*
X183871D01*
Y25978D01*
X183471Y26378D01*
X183871Y26778D01*
Y27178D01*
X183471D01*
X183071Y26778D01*
X182671Y27178D01*
X182271D01*
Y26778D01*
X182671Y26378D01*
X182271Y25978D01*
Y25578D01*
X214410Y113115D02*
X214810D01*
X215210Y113515D01*
X215610Y113115D01*
X216010D01*
Y113515D01*
X215610Y113915D01*
X216010Y114315D01*
Y114715D01*
X215610D01*
X215210Y114315D01*
X214810Y114715D01*
X214410D01*
Y114315D01*
X214810Y113915D01*
X214410Y113515D01*
Y113115D01*
X216424Y109046D02*
X216824D01*
X217224Y109446D01*
X217624Y109046D01*
X218024D01*
Y109446D01*
X217624Y109846D01*
X218024Y110246D01*
Y110646D01*
X217624D01*
X217224Y110246D01*
X216824Y110646D01*
X216424D01*
Y110246D01*
X216824Y109846D01*
X216424Y109446D01*
Y109046D01*
X207303Y105707D02*
X207703D01*
X208103Y106107D01*
X208503Y105707D01*
X208903D01*
Y106107D01*
X208503Y106507D01*
X208903Y106907D01*
Y107307D01*
X208503D01*
X208103Y106907D01*
X207703Y107307D01*
X207303D01*
Y106907D01*
X207703Y106507D01*
X207303Y106107D01*
Y105707D01*
X235324Y109002D02*
X235724D01*
X236124Y109402D01*
X236524Y109002D01*
X236924D01*
Y109402D01*
X236524Y109802D01*
X236924Y110202D01*
Y110602D01*
X236524D01*
X236124Y110202D01*
X235724Y110602D01*
X235324D01*
Y110202D01*
X235724Y109802D01*
X235324Y109402D01*
Y109002D01*
X153224Y139702D02*
X153624D01*
X154024Y140102D01*
X154424Y139702D01*
X154824D01*
Y140102D01*
X154424Y140502D01*
X154824Y140902D01*
Y141302D01*
X154424D01*
X154024Y140902D01*
X153624Y141302D01*
X153224D01*
Y140902D01*
X153624Y140502D01*
X153224Y140102D01*
Y139702D01*
X246124Y126302D02*
X246524D01*
X246924Y126702D01*
X247324Y126302D01*
X247724D01*
Y126702D01*
X247324Y127102D01*
X247724Y127502D01*
Y127902D01*
X247324D01*
X246924Y127502D01*
X246524Y127902D01*
X246124D01*
Y127502D01*
X246524Y127102D01*
X246124Y126702D01*
Y126302D01*
D72*
X127768Y119094D02*
G03*
X127768Y119094I-800J0D01*
G01*
X54934Y137598D02*
G03*
X54934Y137598I-800J0D01*
G01*
X82493D02*
G03*
X82493Y137598I-800J0D01*
G01*
X127768D02*
G03*
X127768Y137598I-800J0D01*
G01*
X186705Y33465D02*
G03*
X186705Y33465I-800J0D01*
G01*
X196705D02*
G03*
X196705Y33465I-800J0D01*
G01*
X206705D02*
G03*
X206705Y33465I-800J0D01*
G01*
X216705D02*
G03*
X216705Y33465I-800J0D01*
G01*
X226705D02*
G03*
X226705Y33465I-800J0D01*
G01*
X236705D02*
G03*
X236705Y33465I-800J0D01*
G01*
X246705D02*
G03*
X246705Y33465I-800J0D01*
G01*
X256705D02*
G03*
X256705Y33465I-800J0D01*
G01*
X266705D02*
G03*
X266705Y33465I-800J0D01*
G01*
X276705D02*
G03*
X276705Y33465I-800J0D01*
G01*
X286705D02*
G03*
X286705Y33465I-800J0D01*
G01*
X296705D02*
G03*
X296705Y33465I-800J0D01*
G01*
X306705D02*
G03*
X306705Y33465I-800J0D01*
G01*
X316705D02*
G03*
X316705Y33465I-800J0D01*
G01*
X326705D02*
G03*
X326705Y33465I-800J0D01*
G01*
X336705D02*
G03*
X336705Y33465I-800J0D01*
G01*
M02*
