G04*
G04 #@! TF.GenerationSoftware,Altium Limited,Altium Designer,20.2.6 (244)*
G04*
G04 Layer_Color=65535*
%FSLAX25Y25*%
%MOIN*%
G70*
G04*
G04 #@! TF.SameCoordinates,357903E5-7464-4FF3-9603-397411888FB0*
G04*
G04*
G04 #@! TF.FilePolarity,Positive*
G04*
G01*
G75*
%ADD10C,0.01575*%
%ADD11C,0.01000*%
%ADD12C,0.01181*%
%ADD13C,0.00591*%
%ADD14C,0.01968*%
%ADD15C,0.00591*%
%ADD16C,0.00787*%
%ADD17C,0.00600*%
%ADD18C,0.00598*%
D10*
X126338Y144346D02*
G03*
X126338Y144346I-787J0D01*
G01*
D11*
X47812Y54645D02*
G03*
X47812Y54645I-1670J0D01*
G01*
X154583D02*
G03*
X154583Y54645I-1670J0D01*
G01*
X101119Y54645D02*
G03*
X101119Y54645I-1670J0D01*
G01*
X116734Y124606D02*
Y132086D01*
X101380Y124606D02*
X116734D01*
X101380D02*
Y132086D01*
X116734D01*
X130637Y114567D02*
X130905D01*
X50197D02*
X123299D01*
X50197Y141896D02*
Y142126D01*
Y114882D02*
Y133301D01*
Y142126D02*
X50465D01*
X57803D02*
X78024D01*
X85362D02*
X123299D01*
X130637D02*
X130905D01*
Y114567D02*
Y114797D01*
Y123392D02*
Y133301D01*
Y141896D02*
Y142126D01*
X108663Y119095D02*
X121065D01*
X108663D02*
Y124607D01*
Y137599D02*
X121065D01*
X108663Y132284D02*
Y137599D01*
X4213Y109764D02*
X54213D01*
Y34961D02*
Y109764D01*
X4213Y34961D02*
X54213D01*
X4213D02*
Y109764D01*
X110984D02*
X160984D01*
Y34961D02*
Y109764D01*
X110984Y34961D02*
X160984D01*
X110984D02*
X110984Y109764D01*
X57520D02*
X107520D01*
Y34961D02*
Y109764D01*
X57520Y34961D02*
X107520D01*
X57520D02*
X57520Y109764D01*
X3849Y117795D02*
Y157692D01*
Y117795D02*
X43849D01*
Y157692D01*
X7752Y117795D02*
Y157623D01*
X3859Y157795D02*
X43859D01*
X42294Y117795D02*
Y157737D01*
X3937Y153425D02*
X7717Y149645D01*
X3937Y142204D02*
X7717Y145984D01*
X3865Y134843D02*
X7645Y131063D01*
X3865Y122597D02*
X7645Y126377D01*
X337697Y96907D02*
X349390D01*
X337697Y88787D02*
Y96907D01*
Y88787D02*
X349390D01*
X337697Y56764D02*
X349390D01*
X337697Y48644D02*
Y56764D01*
Y48644D02*
X349390D01*
X337697Y76692D02*
X349390D01*
X337697Y68573D02*
Y76692D01*
Y68573D02*
X349390D01*
X350935Y42732D02*
Y102732D01*
X310935Y42732D02*
Y102732D01*
Y42732D02*
X350935D01*
X314838Y42663D02*
Y102663D01*
X310896Y102732D02*
X350896D01*
X349380Y42777D02*
Y102777D01*
X180905Y28465D02*
X340905D01*
X180905Y38465D02*
X340905D01*
Y28465D02*
Y38465D01*
X180905Y28465D02*
Y38465D01*
X297395Y120236D02*
X303393D01*
Y124235D01*
X297395Y130233D02*
Y126234D01*
X303393D01*
Y130233D01*
X300394Y126234D02*
Y128234D01*
X297395Y132232D02*
X303393D01*
Y135231D01*
X302393Y136231D01*
X298394D01*
X297395Y135231D01*
Y132232D01*
X303393Y138230D02*
Y140230D01*
Y139230D01*
X297395D01*
X298394Y138230D01*
X303393Y143229D02*
Y145228D01*
Y144228D01*
X297395D01*
X298394Y143229D01*
X198969Y120712D02*
X204967D01*
Y124711D01*
X198969Y130709D02*
Y126710D01*
X204967D01*
Y130709D01*
X201968Y126710D02*
Y128709D01*
X198969Y132708D02*
X204967D01*
Y135707D01*
X203968Y136707D01*
X199969D01*
X198969Y135707D01*
Y132708D01*
X204967Y138706D02*
Y140706D01*
Y139706D01*
X198969D01*
X199969Y138706D01*
X277710Y120500D02*
X283708D01*
Y124498D01*
X277710Y130496D02*
Y126498D01*
X283708D01*
Y130496D01*
X280709Y126498D02*
Y128497D01*
X277710Y132496D02*
X283708D01*
Y135495D01*
X282708Y136494D01*
X278709D01*
X277710Y135495D01*
Y132496D01*
X282708Y138494D02*
X283708Y139494D01*
Y141493D01*
X282708Y142492D01*
X278709D01*
X277710Y141493D01*
Y139494D01*
X278709Y138494D01*
X279709D01*
X280709Y139494D01*
Y142492D01*
X175213Y85017D02*
X179211Y81018D01*
X175213D02*
X179211Y85017D01*
X175213Y83017D02*
X179211D01*
X177212Y81018D02*
Y85017D01*
X181211Y80018D02*
Y86016D01*
X183210Y84017D01*
X185209Y86016D01*
Y80018D01*
X188208Y84017D02*
X190208D01*
X191207Y83017D01*
Y80018D01*
X188208D01*
X187209Y81018D01*
X188208Y82018D01*
X191207D01*
X197205Y86016D02*
Y80018D01*
X194207D01*
X193207Y81018D01*
Y83017D01*
X194207Y84017D01*
X197205D01*
X202204Y80018D02*
X200204D01*
X199205Y81018D01*
Y83017D01*
X200204Y84017D01*
X202204D01*
X203204Y83017D01*
Y82018D01*
X199205D01*
X212201Y80018D02*
X214200D01*
X215200Y81018D01*
Y83017D01*
X214200Y84017D01*
X212201D01*
X211201Y83017D01*
Y81018D01*
X212201Y80018D01*
X217199D02*
Y84017D01*
X220198D01*
X221198Y83017D01*
Y80018D01*
X233194Y86016D02*
X229195D01*
Y80018D01*
X233194D01*
X229195Y83017D02*
X231194D01*
X236193Y84017D02*
X238192D01*
X239192Y83017D01*
Y80018D01*
X236193D01*
X235193Y81018D01*
X236193Y82018D01*
X239192D01*
X241191Y84017D02*
Y80018D01*
Y82018D01*
X242191Y83017D01*
X243191Y84017D01*
X244190D01*
X248189Y85017D02*
Y84017D01*
X247189D01*
X249189D01*
X248189D01*
Y81018D01*
X249189Y80018D01*
X252188Y86016D02*
Y80018D01*
Y83017D01*
X253187Y84017D01*
X255187D01*
X256186Y83017D01*
Y80018D01*
X175213Y76419D02*
Y70421D01*
X178212D01*
X179211Y71420D01*
Y72420D01*
Y73420D01*
X178212Y74419D01*
X175213D01*
X181211D02*
Y71420D01*
X182210Y70421D01*
X185209D01*
Y69421D01*
X184210Y68421D01*
X183210D01*
X185209Y70421D02*
Y74419D01*
X193207Y76419D02*
Y70421D01*
Y73420D01*
X194207Y74419D01*
X196206D01*
X197205Y73420D01*
Y70421D01*
X199205Y74419D02*
Y71420D01*
X200204Y70421D01*
X203204D01*
Y74419D01*
X205203Y70421D02*
Y74419D01*
X206203D01*
X207202Y73420D01*
Y70421D01*
Y73420D01*
X208202Y74419D01*
X209202Y73420D01*
Y70421D01*
X212201Y74419D02*
X214200D01*
X215200Y73420D01*
Y70421D01*
X212201D01*
X211201Y71420D01*
X212201Y72420D01*
X215200D01*
X217199Y70421D02*
Y74419D01*
X220198D01*
X221198Y73420D01*
Y70421D01*
X223197D02*
X226196D01*
X227196Y71420D01*
X226196Y72420D01*
X224197D01*
X223197Y73420D01*
X224197Y74419D01*
X227196D01*
X229195Y75419D02*
X233194Y71420D01*
X229195D02*
X233194Y75419D01*
X229195Y73420D02*
X233194D01*
X231194Y71420D02*
Y75419D01*
X315899Y57809D02*
Y61807D01*
Y59808D01*
X321897D01*
Y63807D02*
X315899D01*
Y66806D01*
X316898Y67805D01*
X318898D01*
X319897Y66806D01*
Y63807D01*
Y65806D02*
X321897Y67805D01*
Y69805D02*
X315899D01*
X317898Y71804D01*
X315899Y73804D01*
X321897D01*
X315899Y75803D02*
X321897D01*
Y79801D01*
X316898Y81801D02*
X315899Y82801D01*
Y84800D01*
X316898Y85800D01*
X317898D01*
X318898Y84800D01*
Y83800D01*
Y84800D01*
X319897Y85800D01*
X320897D01*
X321897Y84800D01*
Y82801D01*
X320897Y81801D01*
X321897Y87799D02*
X315899D01*
Y90798D01*
X316898Y91798D01*
X318898D01*
X319897Y90798D01*
Y87799D01*
X75028Y149902D02*
Y155901D01*
X78027D01*
X79027Y154901D01*
Y152902D01*
X78027Y151902D01*
X75028D01*
X77027D02*
X79027Y149902D01*
X85025Y155901D02*
X81026D01*
Y149902D01*
X85025D01*
X81026Y152902D02*
X83026D01*
X87024Y155901D02*
Y149902D01*
X91023D01*
X93022D02*
Y153901D01*
X95022Y155901D01*
X97021Y153901D01*
Y149902D01*
Y152902D01*
X93022D01*
X99020Y155901D02*
Y154901D01*
X101020Y152902D01*
X103019Y154901D01*
Y155901D01*
X101020Y152902D02*
Y149902D01*
X276529Y85553D02*
X281527D01*
X282527Y86553D01*
Y88552D01*
X281527Y89552D01*
X276529D01*
X277528Y91551D02*
X276529Y92550D01*
Y94550D01*
X277528Y95550D01*
X278528D01*
X279528Y94550D01*
Y93550D01*
Y94550D01*
X280527Y95550D01*
X281527D01*
X282527Y94550D01*
Y92550D01*
X281527Y91551D01*
X336765Y120363D02*
X342763D01*
Y124361D01*
X336765Y130359D02*
Y126361D01*
X342763D01*
Y130359D01*
X339764Y126361D02*
Y128360D01*
X336765Y132359D02*
X342763D01*
Y135358D01*
X341763Y136357D01*
X337764D01*
X336765Y135358D01*
Y132359D01*
X342763Y138357D02*
Y140356D01*
Y139357D01*
X336765D01*
X337764Y138357D01*
X336765Y147354D02*
Y143355D01*
X339764D01*
X338764Y145354D01*
Y146354D01*
X339764Y147354D01*
X341763D01*
X342763Y146354D01*
Y144355D01*
X341763Y143355D01*
X326922Y120363D02*
X332920D01*
Y124361D01*
X326922Y130359D02*
Y126361D01*
X332920D01*
Y130359D01*
X329921Y126361D02*
Y128360D01*
X326922Y132359D02*
X332920D01*
Y135358D01*
X331921Y136357D01*
X327922D01*
X326922Y135358D01*
Y132359D01*
X332920Y138357D02*
Y140356D01*
Y139357D01*
X326922D01*
X327922Y138357D01*
X332920Y146354D02*
X326922D01*
X329921Y143355D01*
Y147354D01*
X317080Y120363D02*
X323078D01*
Y124361D01*
X317080Y130359D02*
Y126361D01*
X323078D01*
Y130359D01*
X320079Y126361D02*
Y128360D01*
X317080Y132359D02*
X323078D01*
Y135358D01*
X322078Y136357D01*
X318079D01*
X317080Y135358D01*
Y132359D01*
X323078Y138357D02*
Y140356D01*
Y139357D01*
X317080D01*
X318079Y138357D01*
Y143355D02*
X317080Y144355D01*
Y146354D01*
X318079Y147354D01*
X319079D01*
X320079Y146354D01*
Y145354D01*
Y146354D01*
X321078Y147354D01*
X322078D01*
X323078Y146354D01*
Y144355D01*
X322078Y143355D01*
X307237Y120363D02*
X313235D01*
Y124361D01*
X307237Y130359D02*
Y126361D01*
X313235D01*
Y130359D01*
X310236Y126361D02*
Y128360D01*
X307237Y132359D02*
X313235D01*
Y135358D01*
X312236Y136357D01*
X308237D01*
X307237Y135358D01*
Y132359D01*
X313235Y138357D02*
Y140356D01*
Y139357D01*
X307237D01*
X308237Y138357D01*
X313235Y147354D02*
Y143355D01*
X309237Y147354D01*
X308237D01*
X307237Y146354D01*
Y144355D01*
X308237Y143355D01*
X287552Y120363D02*
X293550D01*
Y124361D01*
X287552Y130359D02*
Y126361D01*
X293550D01*
Y130359D01*
X290551Y126361D02*
Y128360D01*
X287552Y132359D02*
X293550D01*
Y135358D01*
X292550Y136357D01*
X288552D01*
X287552Y135358D01*
Y132359D01*
X293550Y138357D02*
Y140356D01*
Y139357D01*
X287552D01*
X288552Y138357D01*
Y143355D02*
X287552Y144355D01*
Y146354D01*
X288552Y147354D01*
X292550D01*
X293550Y146354D01*
Y144355D01*
X292550Y143355D01*
X288552D01*
X267867Y120893D02*
X273865D01*
Y124892D01*
X267867Y130890D02*
Y126891D01*
X273865D01*
Y130890D01*
X270866Y126891D02*
Y128891D01*
X267867Y132889D02*
X273865D01*
Y135889D01*
X272866Y136888D01*
X268867D01*
X267867Y135889D01*
Y132889D01*
X268867Y138888D02*
X267867Y139887D01*
Y141886D01*
X268867Y142886D01*
X269866D01*
X270866Y141886D01*
X271866Y142886D01*
X272866D01*
X273865Y141886D01*
Y139887D01*
X272866Y138888D01*
X271866D01*
X270866Y139887D01*
X269866Y138888D01*
X268867D01*
X270866Y139887D02*
Y141886D01*
X261724Y55501D02*
X257725D01*
Y52502D01*
X259725Y53501D01*
X260724D01*
X261724Y52502D01*
Y50502D01*
X260724Y49503D01*
X258725D01*
X257725Y50502D01*
X263723Y55501D02*
Y51502D01*
X265723Y49503D01*
X267722Y51502D01*
Y55501D01*
X258025Y120893D02*
X264023D01*
Y124892D01*
X258025Y130890D02*
Y126891D01*
X264023D01*
Y130890D01*
X261024Y126891D02*
Y128891D01*
X258025Y132889D02*
X264023D01*
Y135889D01*
X263023Y136888D01*
X259024D01*
X258025Y135889D01*
Y132889D01*
Y138888D02*
Y142886D01*
X259024D01*
X263023Y138888D01*
X264023D01*
X248182Y120893D02*
X254180D01*
Y124892D01*
X248182Y130890D02*
Y126891D01*
X254180D01*
Y130890D01*
X251181Y126891D02*
Y128891D01*
X248182Y132889D02*
X254180D01*
Y135889D01*
X253180Y136888D01*
X249182D01*
X248182Y135889D01*
Y132889D01*
Y142886D02*
X249182Y140887D01*
X251181Y138888D01*
X253180D01*
X254180Y139887D01*
Y141886D01*
X253180Y142886D01*
X252181D01*
X251181Y141886D01*
Y138888D01*
X238339Y120893D02*
X244338D01*
Y124892D01*
X238339Y130890D02*
Y126891D01*
X244338D01*
Y130890D01*
X241339Y126891D02*
Y128891D01*
X238339Y132889D02*
X244338D01*
Y135889D01*
X243338Y136888D01*
X239339D01*
X238339Y135889D01*
Y132889D01*
Y142886D02*
Y138888D01*
X241339D01*
X240339Y140887D01*
Y141886D01*
X241339Y142886D01*
X243338D01*
X244338Y141886D01*
Y139887D01*
X243338Y138888D01*
X228497Y120893D02*
X234495D01*
Y124892D01*
X228497Y130890D02*
Y126891D01*
X234495D01*
Y130890D01*
X231496Y126891D02*
Y128891D01*
X228497Y132889D02*
X234495D01*
Y135889D01*
X233495Y136888D01*
X229497D01*
X228497Y135889D01*
Y132889D01*
X234495Y141886D02*
X228497D01*
X231496Y138888D01*
Y142886D01*
X218654Y120893D02*
X224653D01*
Y124892D01*
X218654Y130890D02*
Y126891D01*
X224653D01*
Y130890D01*
X221654Y126891D02*
Y128891D01*
X218654Y132889D02*
X224653D01*
Y135889D01*
X223653Y136888D01*
X219654D01*
X218654Y135889D01*
Y132889D01*
X219654Y138888D02*
X218654Y139887D01*
Y141886D01*
X219654Y142886D01*
X220654D01*
X221654Y141886D01*
Y140887D01*
Y141886D01*
X222653Y142886D01*
X223653D01*
X224653Y141886D01*
Y139887D01*
X223653Y138888D01*
X208812Y120893D02*
X214810D01*
Y124892D01*
X208812Y130890D02*
Y126891D01*
X214810D01*
Y130890D01*
X211811Y126891D02*
Y128891D01*
X208812Y132889D02*
X214810D01*
Y135889D01*
X213810Y136888D01*
X209812D01*
X208812Y135889D01*
Y132889D01*
X214810Y142886D02*
Y138888D01*
X210811Y142886D01*
X209812D01*
X208812Y141886D01*
Y139887D01*
X209812Y138888D01*
X189127Y120893D02*
X195125D01*
Y124892D01*
X189127Y130890D02*
Y126891D01*
X195125D01*
Y130890D01*
X192126Y126891D02*
Y128891D01*
X189127Y132889D02*
X195125D01*
Y135889D01*
X194125Y136888D01*
X190127D01*
X189127Y135889D01*
Y132889D01*
X190127Y138888D02*
X189127Y139887D01*
Y141886D01*
X190127Y142886D01*
X194125D01*
X195125Y141886D01*
Y139887D01*
X194125Y138888D01*
X190127D01*
X218726Y54701D02*
X219726Y55701D01*
X221725D01*
X222725Y54701D01*
Y53701D01*
X221725Y52702D01*
X220726D01*
X221725D01*
X222725Y51702D01*
Y50702D01*
X221725Y49703D01*
X219726D01*
X218726Y50702D01*
X224724Y55701D02*
Y51702D01*
X226724Y49703D01*
X228723Y51702D01*
Y55701D01*
X230722Y54701D02*
X231722Y55701D01*
X233721D01*
X234721Y54701D01*
Y53701D01*
X233721Y52702D01*
X232722D01*
X233721D01*
X234721Y51702D01*
Y50702D01*
X233721Y49703D01*
X231722D01*
X230722Y50702D01*
X64899Y131345D02*
Y125347D01*
Y127347D01*
X68898Y131345D01*
X65899Y128347D01*
X68898Y125347D01*
X70897D02*
X72896D01*
X71897D01*
Y131345D01*
X70897Y130346D01*
X170260Y36464D02*
X168261D01*
X169261D01*
Y31465D01*
X168261Y30465D01*
X167261D01*
X166261Y31465D01*
X172259Y35464D02*
X173259Y36464D01*
X175259D01*
X176258Y35464D01*
Y34464D01*
X175259Y33465D01*
X174259D01*
X175259D01*
X176258Y32465D01*
Y31465D01*
X175259Y30465D01*
X173259D01*
X172259Y31465D01*
X172071Y158511D02*
X170072D01*
X171072D01*
Y153513D01*
X170072Y152513D01*
X169072D01*
X168072Y153513D01*
X178069Y152513D02*
X174071D01*
X178069Y156511D01*
Y157511D01*
X177070Y158511D01*
X175070D01*
X174071Y157511D01*
X23622Y140794D02*
X21623D01*
X22622D01*
Y135796D01*
X21623Y134796D01*
X20623D01*
X19623Y135796D01*
X25621Y134796D02*
X27621D01*
X26621D01*
Y140794D01*
X25621Y139795D01*
X113512Y33151D02*
X117511Y29152D01*
X113512D02*
X117511Y33151D01*
X113512Y31151D02*
X117511D01*
X115511Y29152D02*
Y33151D01*
X119510D02*
X120510Y34150D01*
X122509D01*
X123509Y33151D01*
Y32151D01*
X122509Y31151D01*
X121509D01*
X122509D01*
X123509Y30152D01*
Y29152D01*
X122509Y28152D01*
X120510D01*
X119510Y29152D01*
X60362Y33151D02*
X64361Y29152D01*
X60362D02*
X64361Y33151D01*
X60362Y31151D02*
X64361D01*
X62362Y29152D02*
Y33151D01*
X70359Y28152D02*
X66360D01*
X70359Y32151D01*
Y33151D01*
X69359Y34150D01*
X67360D01*
X66360Y33151D01*
X6244D02*
X10243Y29152D01*
X6244D02*
X10243Y33151D01*
X6244Y31151D02*
X10243D01*
X8243Y29152D02*
Y33151D01*
X12242Y28152D02*
X14241D01*
X13242D01*
Y34150D01*
X12242Y33151D01*
D12*
X269222Y100962D02*
G03*
X269222Y100962I-591J0D01*
G01*
X277091Y98051D02*
G03*
X277091Y98051I-591J0D01*
G01*
D13*
X292520Y69685D02*
X298031D01*
X292520Y58189D02*
Y69685D01*
X298031Y58189D02*
Y69685D01*
X292520Y58189D02*
X298031D01*
X242146Y41988D02*
Y47500D01*
X230650D02*
X242146D01*
X230650Y41988D02*
X242146D01*
X230650D02*
Y47500D01*
X275630Y41732D02*
Y47244D01*
X264134D02*
X275630D01*
X264134Y41732D02*
X275630D01*
X264134D02*
Y47244D01*
X280315Y55906D02*
Y60827D01*
Y55906D02*
X286614D01*
Y60827D01*
X280315Y65158D02*
Y70079D01*
X286614D01*
Y65158D02*
Y70079D01*
X302362Y79843D02*
X307874D01*
Y91339D01*
X302362Y79843D02*
Y91339D01*
X307874D01*
X302362Y69685D02*
X307874D01*
X302362Y58189D02*
Y69685D01*
X307874Y58189D02*
Y69685D01*
X302362Y58189D02*
X307874D01*
X170079Y119291D02*
Y124803D01*
X158583D02*
X170079D01*
X158583Y119291D02*
X170079D01*
X158583D02*
Y124803D01*
D14*
X17402Y73543D02*
X18976Y91260D01*
X15823Y53072D02*
X17403Y70792D01*
X39842Y52874D02*
X41417Y70591D01*
X19370Y72362D02*
X39055D01*
X21339Y92047D02*
X41024D01*
X17793Y52672D02*
X37483D01*
X41417Y73346D02*
X42992Y91063D01*
X124173Y73543D02*
X125748Y91260D01*
X122594Y53072D02*
X124174Y70792D01*
X146614Y52874D02*
X148189Y70591D01*
X126142Y72362D02*
X145827D01*
X128110Y92047D02*
X147795D01*
X124564Y52672D02*
X144254D01*
X148189Y73346D02*
X149764Y91063D01*
X70709Y73543D02*
X72283Y91260D01*
X69130Y53072D02*
X70710Y70792D01*
X93150Y52874D02*
X94724Y70591D01*
X72677Y72362D02*
X92362D01*
X74646Y92047D02*
X94331D01*
X71100Y52672D02*
X90790D01*
X94724Y73346D02*
X96299Y91063D01*
D15*
X223213Y43457D02*
X223252D01*
X221913Y44756D02*
X223213Y43457D01*
X223252Y46095D02*
Y46134D01*
X221913Y44756D02*
X223252Y46095D01*
Y43457D02*
Y46134D01*
X223330Y47709D02*
X227858D01*
X223330Y41803D02*
X227858D01*
Y41882D02*
Y47709D01*
X217700Y41794D02*
X221834D01*
X216519Y42975D02*
Y43369D01*
Y42975D02*
X217700Y41794D01*
X216519Y43369D02*
Y46125D01*
Y46519D01*
X217700Y47700D01*
X221834D01*
X221913Y44756D02*
X223252D01*
X256931Y43215D02*
X256970D01*
X255631Y44514D02*
X256931Y43215D01*
X256970Y45852D02*
Y45892D01*
X255631Y44514D02*
X256970Y45852D01*
Y43215D02*
Y45892D01*
X257049Y47467D02*
X261577D01*
X257049Y41561D02*
X261577D01*
Y41640D02*
Y47467D01*
X251419Y41552D02*
X255553D01*
X250238Y42733D02*
Y43127D01*
Y42733D02*
X251419Y41552D01*
X250238Y43127D02*
Y45883D01*
Y46277D01*
X251419Y47458D01*
X255553D01*
X255631Y44514D02*
X256970D01*
X163704Y131902D02*
X165043D01*
X159491Y134846D02*
X163626D01*
X158310Y133665D02*
X159491Y134846D01*
X158310Y133270D02*
Y133665D01*
Y130515D02*
Y133270D01*
Y130121D02*
X159491Y128940D01*
X158310Y130121D02*
Y130515D01*
X159491Y128940D02*
X163626D01*
X169650Y129028D02*
Y134854D01*
X165122Y128949D02*
X169650D01*
X165122Y134855D02*
X169650D01*
X165043Y130602D02*
Y133280D01*
X163704Y131902D02*
X165043Y133240D01*
Y133280D01*
X163704Y131902D02*
X165004Y130602D01*
X165043D01*
X339752Y112523D02*
Y113862D01*
X336808Y108310D02*
Y112445D01*
Y108310D02*
X337989Y107129D01*
X338383D01*
X341139D01*
X341532D02*
X342714Y108310D01*
X341139Y107129D02*
X341532D01*
X342714Y108310D02*
Y112445D01*
X336799Y118468D02*
X342626D01*
X342705Y113941D02*
Y118468D01*
X336799Y113941D02*
Y118468D01*
X338374Y113862D02*
X341051D01*
X338413D02*
X339752Y112523D01*
X338374Y113862D02*
X338413D01*
X339752Y112523D02*
X341051Y113823D01*
Y113862D01*
X329909Y112523D02*
Y113862D01*
X326965Y108310D02*
Y112445D01*
Y108310D02*
X328146Y107129D01*
X328541D01*
X331296D01*
X331690D02*
X332871Y108310D01*
X331296Y107129D02*
X331690D01*
X332871Y108310D02*
Y112445D01*
X326957Y118468D02*
X332783D01*
X332862Y113941D02*
Y118468D01*
X326956Y113941D02*
Y118468D01*
X328531Y113862D02*
X331209D01*
X328571D02*
X329909Y112523D01*
X328531Y113862D02*
X328571D01*
X329909Y112523D02*
X331209Y113823D01*
Y113862D01*
X320067Y112523D02*
Y113862D01*
X317123Y108310D02*
Y112445D01*
Y108310D02*
X318304Y107129D01*
X318698D01*
X321454D01*
X321847D02*
X323029Y108310D01*
X321454Y107129D02*
X321847D01*
X323029Y108310D02*
Y112445D01*
X317114Y118468D02*
X322941D01*
X323020Y113941D02*
Y118468D01*
X317114Y113941D02*
Y118468D01*
X318689Y113862D02*
X321366D01*
X318728D02*
X320067Y112523D01*
X318689Y113862D02*
X318728D01*
X320067Y112523D02*
X321366Y113823D01*
Y113862D01*
X310224Y112523D02*
Y113862D01*
X307280Y108310D02*
Y112445D01*
Y108310D02*
X308461Y107129D01*
X308855D01*
X311611D01*
X312005D02*
X313186Y108310D01*
X311611Y107129D02*
X312005D01*
X313186Y108310D02*
Y112445D01*
X307271Y118468D02*
X313098D01*
X313177Y113941D02*
Y118468D01*
X307271Y113941D02*
Y118468D01*
X308846Y113862D02*
X311523D01*
X308886D02*
X310224Y112523D01*
X308846Y113862D02*
X308886D01*
X310224Y112523D02*
X311523Y113823D01*
Y113862D01*
X300382Y112523D02*
Y113862D01*
X297438Y108310D02*
Y112445D01*
Y108310D02*
X298619Y107129D01*
X299013D01*
X301769D01*
X302162D02*
X303344Y108310D01*
X301769Y107129D02*
X302162D01*
X303344Y108310D02*
Y112445D01*
X297429Y118468D02*
X303256D01*
X303335Y113941D02*
Y118468D01*
X297429Y113941D02*
Y118468D01*
X299004Y113862D02*
X301681D01*
X299043D02*
X300382Y112523D01*
X299004Y113862D02*
X299043D01*
X300382Y112523D02*
X301681Y113823D01*
Y113862D01*
X290539Y112523D02*
Y113862D01*
X287595Y108310D02*
Y112445D01*
Y108310D02*
X288776Y107129D01*
X289170D01*
X291926D01*
X292320D02*
X293501Y108310D01*
X291926Y107129D02*
X292320D01*
X293501Y108310D02*
Y112445D01*
X287586Y118468D02*
X293413D01*
X293492Y113941D02*
Y118468D01*
X287586Y113941D02*
Y118468D01*
X289161Y113862D02*
X291838D01*
X289201D02*
X290539Y112523D01*
X289161Y113862D02*
X289201D01*
X290539Y112523D02*
X291838Y113823D01*
Y113862D01*
X280697Y112523D02*
Y113862D01*
X277753Y108310D02*
Y112445D01*
Y108310D02*
X278934Y107129D01*
X279328D01*
X282084D01*
X282477D02*
X283659Y108310D01*
X282084Y107129D02*
X282477D01*
X283659Y108310D02*
Y112445D01*
X277744Y118468D02*
X283571D01*
X283650Y113941D02*
Y118468D01*
X277744Y113941D02*
Y118468D01*
X279319Y113862D02*
X281996D01*
X279358D02*
X280697Y112523D01*
X279319Y113862D02*
X279358D01*
X280697Y112523D02*
X281996Y113823D01*
Y113862D01*
X270854Y112523D02*
Y113862D01*
X267910Y108310D02*
Y112445D01*
Y108310D02*
X269091Y107129D01*
X269485D01*
X272241D01*
X272635D02*
X273816Y108310D01*
X272241Y107129D02*
X272635D01*
X273816Y108310D02*
Y112445D01*
X267901Y118468D02*
X273728D01*
X273807Y113941D02*
Y118468D01*
X267901Y113941D02*
Y118468D01*
X269476Y113862D02*
X272153D01*
X269516D02*
X270854Y112523D01*
X269476Y113862D02*
X269516D01*
X270854Y112523D02*
X272153Y113823D01*
Y113862D01*
X261012Y112523D02*
Y113862D01*
X258068Y108310D02*
Y112445D01*
Y108310D02*
X259249Y107129D01*
X259643D01*
X262399D01*
X262792D02*
X263974Y108310D01*
X262399Y107129D02*
X262792D01*
X263974Y108310D02*
Y112445D01*
X258059Y118468D02*
X263886D01*
X263965Y113941D02*
Y118468D01*
X258059Y113941D02*
Y118468D01*
X259634Y113862D02*
X262311D01*
X259673D02*
X261012Y112523D01*
X259634Y113862D02*
X259673D01*
X261012Y112523D02*
X262311Y113823D01*
Y113862D01*
X251169Y112523D02*
Y113862D01*
X248225Y108310D02*
Y112445D01*
Y108310D02*
X249406Y107129D01*
X249800D01*
X252556D01*
X252950D02*
X254131Y108310D01*
X252556Y107129D02*
X252950D01*
X254131Y108310D02*
Y112445D01*
X248216Y118468D02*
X254043D01*
X254122Y113941D02*
Y118468D01*
X248216Y113941D02*
Y118468D01*
X249791Y113862D02*
X252468D01*
X249830D02*
X251169Y112523D01*
X249791Y113862D02*
X249830D01*
X251169Y112523D02*
X252468Y113823D01*
Y113862D01*
X241327Y112523D02*
Y113862D01*
X238383Y108310D02*
Y112445D01*
Y108310D02*
X239564Y107129D01*
X239958D01*
X242713D01*
X243107D02*
X244289Y108310D01*
X242713Y107129D02*
X243107D01*
X244289Y108310D02*
Y112445D01*
X238374Y118468D02*
X244201D01*
X244280Y113941D02*
Y118468D01*
X238374Y113941D02*
Y118468D01*
X239949Y113862D02*
X242626D01*
X239988D02*
X241327Y112523D01*
X239949Y113862D02*
X239988D01*
X241327Y112523D02*
X242626Y113823D01*
Y113862D01*
X231484Y112523D02*
Y113862D01*
X228540Y108310D02*
Y112445D01*
Y108310D02*
X229721Y107129D01*
X230115D01*
X232871D01*
X233265D02*
X234446Y108310D01*
X232871Y107129D02*
X233265D01*
X234446Y108310D02*
Y112445D01*
X228531Y118468D02*
X234358D01*
X234437Y113941D02*
Y118468D01*
X228531Y113941D02*
Y118468D01*
X230106Y113862D02*
X232783D01*
X230145D02*
X231484Y112523D01*
X230106Y113862D02*
X230145D01*
X231484Y112523D02*
X232783Y113823D01*
Y113862D01*
X221642Y112523D02*
Y113862D01*
X218698Y108310D02*
Y112445D01*
Y108310D02*
X219879Y107129D01*
X220273D01*
X223028D01*
X223422D02*
X224604Y108310D01*
X223028Y107129D02*
X223422D01*
X224604Y108310D02*
Y112445D01*
X218689Y118468D02*
X224516D01*
X224595Y113941D02*
Y118468D01*
X218689Y113941D02*
Y118468D01*
X220264Y113862D02*
X222941D01*
X220303D02*
X221642Y112523D01*
X220264Y113862D02*
X220303D01*
X221642Y112523D02*
X222941Y113823D01*
Y113862D01*
X211799Y112523D02*
Y113862D01*
X208855Y108310D02*
Y112445D01*
Y108310D02*
X210036Y107129D01*
X210430D01*
X213186D01*
X213580D02*
X214761Y108310D01*
X213186Y107129D02*
X213580D01*
X214761Y108310D02*
Y112445D01*
X208846Y118468D02*
X214673D01*
X214752Y113941D02*
Y118468D01*
X208846Y113941D02*
Y118468D01*
X210421Y113862D02*
X213098D01*
X210460D02*
X211799Y112523D01*
X210421Y113862D02*
X210460D01*
X211799Y112523D02*
X213098Y113823D01*
Y113862D01*
X201956Y112523D02*
Y113862D01*
X199013Y108310D02*
Y112445D01*
Y108310D02*
X200193Y107129D01*
X200588D01*
X203343D01*
X203737D02*
X204919Y108310D01*
X203343Y107129D02*
X203737D01*
X204919Y108310D02*
Y112445D01*
X199004Y118468D02*
X204830D01*
X204910Y113941D02*
Y118468D01*
X199004Y113941D02*
Y118468D01*
X200578Y113862D02*
X203256D01*
X200618D02*
X201956Y112523D01*
X200578Y113862D02*
X200618D01*
X201956Y112523D02*
X203256Y113823D01*
Y113862D01*
X192114Y112523D02*
Y113862D01*
X189170Y108310D02*
Y112445D01*
Y108310D02*
X190351Y107129D01*
X190745D01*
X193501D01*
X193895D02*
X195076Y108310D01*
X193501Y107129D02*
X193895D01*
X195076Y108310D02*
Y112445D01*
X189161Y118468D02*
X194988D01*
X195067Y113941D02*
Y118468D01*
X189161Y113941D02*
Y118468D01*
X190736Y113862D02*
X193413D01*
X190775D02*
X192114Y112523D01*
X190736Y113862D02*
X190775D01*
X192114Y112523D02*
X193413Y113823D01*
Y113862D01*
D16*
X268780Y152873D02*
Y156969D01*
X254056Y156968D02*
X268780Y156969D01*
X254056Y152953D02*
Y156968D01*
X254054Y145473D02*
Y149568D01*
Y145473D02*
X268778Y145474D01*
Y149410D01*
X246732Y152873D02*
Y156969D01*
X232008Y156968D02*
X246732Y156969D01*
X232008Y152953D02*
Y156968D01*
X232007Y145473D02*
Y149568D01*
Y145473D02*
X246731Y145474D01*
Y149410D01*
X225079Y152873D02*
Y156969D01*
X210355Y156968D02*
X225079Y156969D01*
X210355Y152953D02*
Y156968D01*
X210353Y145473D02*
Y149568D01*
Y145473D02*
X225077Y145474D01*
Y149410D01*
X203425Y152873D02*
Y156969D01*
X188701Y156968D02*
X203425Y156969D01*
X188701Y152953D02*
Y156968D01*
X188700Y145473D02*
Y149568D01*
Y145473D02*
X203424Y145474D01*
Y149410D01*
X166417Y150512D02*
Y160512D01*
X126417Y150512D02*
X166417D01*
X126417Y160512D02*
X166417D01*
X126417Y150512D02*
Y160512D01*
D17*
X273538Y80606D02*
Y100497D01*
Y80606D02*
X285517D01*
Y100497D01*
X273538D02*
X285517D01*
X140133Y114700D02*
X151205D01*
X140133D02*
Y115361D01*
X149488Y114700D02*
Y121520D01*
X140133D02*
X151205D01*
X140133Y120859D02*
Y121520D01*
X142220Y134034D02*
Y137620D01*
X149119Y137774D02*
Y141875D01*
X142220D02*
X149119D01*
Y129779D02*
Y133880D01*
X142220Y129779D02*
X149119D01*
D18*
X151205Y114700D02*
Y115137D01*
Y121083D02*
X151890D01*
X151205Y115137D02*
X151890D01*
Y114700D02*
Y115137D01*
X151205Y114700D02*
X151890D01*
X151205Y121520D02*
X151890D01*
Y121083D02*
Y121520D01*
X151205Y121083D02*
Y121520D01*
X148926Y114700D02*
Y121520D01*
M02*
