M48
;Layer_Color=9474304
;FILE_FORMAT=2:5
INCH,LZ
;TYPE=PLATED
T1F00S00C0.01200
T2F00S00C0.03150
T3F00S00C0.03543
T4F00S00C0.03937
T5F00S00C0.04331
T6F00S00C0.05118
T7F00S00C0.11811
%
T01
X0287345Y0041123
X0300224Y0061002
X0295821Y0075065
X0289724Y0079302
X0285024Y0074602
X0298098Y0093176
X0275905Y0048202
X0256524Y0053002
X0240924Y0037202
X023189Y0040945
X0214424Y0042002
X0184624Y0039402
X0183071Y0026378
X0167323
X0160924Y0031802
X0150787Y003622
X0155824Y0047902
X0151181Y0056299
X0125524Y0055702
X0125424Y0061002
X0125197Y007874
X0135827Y0095276
X0161581Y0080885
X0177165Y0083025
X0174024Y0090102
X0181324Y0096502
X0185624Y0098502
X0186224Y0092813
X0188624Y0094602
X0188189Y0087008
X0193124Y008999
X0201024Y0095802
X0198824Y0098202
X0135335Y0014567
X0112992Y0058268
X0109449Y0061811
X0101824Y0061702
X0112598Y0068504
X0112324Y0083502
X0090272Y0095562
X0082677Y0095276
X0072224Y0078002
X0072409Y0063787
X0072424Y0056002
X0074924Y0053402
X0075724Y0058302
X0058661Y0058268
X0056424Y0061002
X0048524
X0059724Y0069002
X0059961Y0083583
X0029527Y0095276
X0016524Y0077202
X0006811Y0083583
X0006764Y0068543
X002126Y0058583
X0022008Y0053583
X0051824Y0124902
X0061824Y0124402
X0068724Y0117502
X0137124Y0136202
X0134843Y0144685
X0154024Y0140502
X0156224Y0114202
X0165436Y0116929
X0168504Y0110236
X0171524Y0122002
X0182224Y0122402
X0195124Y0120002
X0188324Y0131902
X0201524Y0133602
X0203924Y0138502
X0206693Y0150787
X0181324Y0151302
X0176924Y0150902
X0180924Y0146502
X021521Y0113915
X0217224Y0109846
X0221824Y0104302
X0208103Y0106507
X0236124Y0109802
X0241724Y0119602
X0245324Y0124602
X0246924Y0127102
X0246324Y0138202
X0257024Y0151213
X0260224Y0151302
X0263424Y0151202
X0262324Y0159402
X0267323Y01625
X0277424Y0163823
X0273228Y0154724
X0274803Y0150787
X0279134Y014685
X0254824Y0161302
X0250724Y0157602
X0240624Y0163302
X0247724Y0115302
X0275924Y0108902
X0270824Y0102702
X0287824Y0106302
X0307124Y0120302
X0310236Y0132677
X0320079Y0124646
X0324961Y0121102
X0335433Y0113779
X030315Y0144095
X0287795Y014685
X0297124Y0161102
X0294188Y0164488
T02
X0125984Y0042362
X0135984
X0145984
X0155984
X0115984
X010252
X009252
X008252
X007252
X006252
X0049213
X0039213
X0029213
X0019213
X0009213
Y0102362
X0019213
X0029213
X0039213
X0049213
X006252
X007252
X008252
X009252
X010252
X0115984
X0125984
X0135984
X0145984
X0155984
T03
X0131417Y0155512
X0141417
X0151417
X0161417
T04
X0282165Y0009488
Y0019488
X0292165
Y0009488
X0302165
Y0019488
X0312165
Y0009488
X0322165
Y0019488
X0272165
X0262165
X0252165
X0242165
X0232165
X0222165
X0212165
X0202165
X0192165
X0182165
X0172165
X0162165
X0152165
X0142165
X0132165
Y0009488
X0142165
X0152165
X0162165
X0172165
X0182165
X0192165
X0202165
X0212165
X0222165
X0232165
X0242165
X0252165
X0262165
X0272165
X0122165
X0112165
X0102165
X0092165
X0082165
X0072165
X0062165
X0052165
X0042165
X0032165
Y0019488
X0042165
X0052165
X0062165
X0072165
X0082165
X0092165
X0102165
X0112165
X0122165
Y0169488
Y0179488
X0112165
Y0169488
X0102165
Y0179488
X0092165
Y0169488
X0082165
Y0179488
X0072165
Y0169488
X0062165
Y0179488
X0052165
Y0169488
X0042165
Y0179488
X0032165
Y0169488
X0132165
X0142165
X0152165
X0162165
X0172165
X0182165
X0192165
X0202165
X0212165
X0222165
X0232165
X0242165
X0252165
X0262165
X0272165
Y0179488
X0262165
X0252165
X0242165
X0232165
X0222165
X0212165
X0202165
X0192165
X0182165
X0172165
X0162165
X0152165
X0142165
X0132165
X0282165
X0292165
X0302165
X0312165
X0322165
Y0169488
X0312165
X0302165
X0292165
X0282165
T05
X0285905Y0033465
X0295905
X0305905
X0315905
X0325905
X0335905
X0275905
X0265905
X0255905
X0245905
X0235905
X0225905
X0215905
X0205905
X0195905
X0185905
X0081693Y0137598
X0054134
X0126968
Y0119094
T06
X032874Y0052835
Y0072835
Y0092835
X0021654Y0127795
Y0147795
T07
X034252Y0011811
X0011811
Y0177165
X034252
M30
