G04*
G04 #@! TF.GenerationSoftware,Altium Limited,Altium Designer,20.2.6 (244)*
G04*
G04 Layer_Color=16711935*
%FSLAX25Y25*%
%MOIN*%
G70*
G04*
G04 #@! TF.SameCoordinates,357903E5-7464-4FF3-9603-397411888FB0*
G04*
G04*
G04 #@! TF.FilePolarity,Negative*
G04*
G01*
G75*
%ADD39C,0.07099*%
%ADD40R,0.07099X0.07099*%
%ADD41C,0.09068*%
%ADD42C,0.06800*%
%ADD43C,0.08674*%
%ADD44C,0.07887*%
%ADD45R,0.07887X0.07887*%
%ADD46C,0.06706*%
%ADD47R,0.06706X0.06706*%
%ADD48C,0.20485*%
%ADD63R,0.06317X0.02079*%
G04:AMPARAMS|DCode=64|XSize=63.17mil|YSize=20.79mil|CornerRadius=10.39mil|HoleSize=0mil|Usage=FLASHONLY|Rotation=180.000|XOffset=0mil|YOffset=0mil|HoleType=Round|Shape=RoundedRectangle|*
%AMROUNDEDRECTD64*
21,1,0.06317,0.00000,0,0,180.0*
21,1,0.04238,0.02079,0,0,180.0*
1,1,0.02079,-0.02119,0.00000*
1,1,0.02079,0.02119,0.00000*
1,1,0.02079,0.02119,0.00000*
1,1,0.02079,-0.02119,0.00000*
%
%ADD64ROUNDEDRECTD64*%
%ADD67R,0.03950X0.03359*%
%ADD68R,0.03950X0.02769*%
D39*
X322165Y169488D02*
D03*
Y179488D02*
D03*
X312165Y169488D02*
D03*
Y179488D02*
D03*
X302165Y169488D02*
D03*
Y179488D02*
D03*
X292165Y169488D02*
D03*
Y179488D02*
D03*
X282165Y169488D02*
D03*
Y179488D02*
D03*
X272165Y169488D02*
D03*
Y179488D02*
D03*
X262165Y169488D02*
D03*
Y179488D02*
D03*
X252165Y169488D02*
D03*
Y179488D02*
D03*
X242165Y169488D02*
D03*
Y179488D02*
D03*
X232165Y169488D02*
D03*
Y179488D02*
D03*
X222165Y169488D02*
D03*
Y179488D02*
D03*
X212165Y169488D02*
D03*
Y179488D02*
D03*
X202165Y169488D02*
D03*
Y179488D02*
D03*
X192165Y169488D02*
D03*
Y179488D02*
D03*
X182165Y169488D02*
D03*
Y179488D02*
D03*
X172165Y169488D02*
D03*
Y179488D02*
D03*
X162165Y169488D02*
D03*
Y179488D02*
D03*
X152165Y169488D02*
D03*
Y179488D02*
D03*
X142165Y169488D02*
D03*
Y179488D02*
D03*
X132165Y169488D02*
D03*
Y179488D02*
D03*
X122165Y169488D02*
D03*
Y179488D02*
D03*
X112165Y169488D02*
D03*
Y179488D02*
D03*
X102165Y169488D02*
D03*
Y179488D02*
D03*
X92165Y169488D02*
D03*
Y179488D02*
D03*
X82165Y169488D02*
D03*
Y179488D02*
D03*
X72165Y169488D02*
D03*
Y179488D02*
D03*
X62165Y169488D02*
D03*
Y179488D02*
D03*
X52165Y169488D02*
D03*
Y179488D02*
D03*
X42165Y169488D02*
D03*
Y179488D02*
D03*
X32165Y169488D02*
D03*
Y9488D02*
D03*
X42165Y19488D02*
D03*
Y9488D02*
D03*
X52165Y19488D02*
D03*
Y9488D02*
D03*
X62165Y19488D02*
D03*
Y9488D02*
D03*
X72165Y19488D02*
D03*
Y9488D02*
D03*
X82165Y19488D02*
D03*
Y9488D02*
D03*
X92165Y19488D02*
D03*
Y9488D02*
D03*
X102165Y19488D02*
D03*
Y9488D02*
D03*
X112165Y19488D02*
D03*
Y9488D02*
D03*
X122165Y19488D02*
D03*
Y9488D02*
D03*
X132165Y19488D02*
D03*
Y9488D02*
D03*
X142165Y19488D02*
D03*
Y9488D02*
D03*
X152165Y19488D02*
D03*
Y9488D02*
D03*
X162165Y19488D02*
D03*
Y9488D02*
D03*
X172165Y19488D02*
D03*
Y9488D02*
D03*
X182165Y19488D02*
D03*
Y9488D02*
D03*
X192165Y19488D02*
D03*
Y9488D02*
D03*
X202165Y19488D02*
D03*
Y9488D02*
D03*
X212165Y19488D02*
D03*
Y9488D02*
D03*
X222165Y19488D02*
D03*
Y9488D02*
D03*
X232165Y19488D02*
D03*
Y9488D02*
D03*
X242165Y19488D02*
D03*
Y9488D02*
D03*
X252165Y19488D02*
D03*
Y9488D02*
D03*
X262165Y19488D02*
D03*
Y9488D02*
D03*
X272165Y19488D02*
D03*
Y9488D02*
D03*
X282165Y19488D02*
D03*
Y9488D02*
D03*
X292165Y19488D02*
D03*
Y9488D02*
D03*
X302165Y19488D02*
D03*
Y9488D02*
D03*
X312165Y19488D02*
D03*
Y9488D02*
D03*
X322165Y19488D02*
D03*
Y9488D02*
D03*
D40*
X32165Y179488D02*
D03*
Y19488D02*
D03*
D41*
X126968Y119094D02*
D03*
X54134Y137598D02*
D03*
X81693D02*
D03*
X126968D02*
D03*
D42*
X9213Y42362D02*
D03*
X19213D02*
D03*
X29213D02*
D03*
X39213D02*
D03*
X49213D02*
D03*
X9213Y102362D02*
D03*
X19213D02*
D03*
X29213D02*
D03*
X39213D02*
D03*
X49213D02*
D03*
X115984Y42362D02*
D03*
X125984D02*
D03*
X135984D02*
D03*
X145984D02*
D03*
X155984D02*
D03*
X115984Y102362D02*
D03*
X125984D02*
D03*
X135984D02*
D03*
X145984D02*
D03*
X155984D02*
D03*
X62520Y42362D02*
D03*
X72520D02*
D03*
X82520D02*
D03*
X92520D02*
D03*
X102520D02*
D03*
X62520Y102362D02*
D03*
X72520D02*
D03*
X82520D02*
D03*
X92520D02*
D03*
X102520D02*
D03*
D43*
X21654Y127795D02*
D03*
Y147795D02*
D03*
X328740Y52835D02*
D03*
Y72835D02*
D03*
Y92835D02*
D03*
D44*
X185905Y33465D02*
D03*
X195905D02*
D03*
X205905D02*
D03*
X215905D02*
D03*
X225905D02*
D03*
X235905D02*
D03*
X245905D02*
D03*
X255905D02*
D03*
X265905D02*
D03*
X275905D02*
D03*
X285905D02*
D03*
X295905D02*
D03*
X305905D02*
D03*
X315905D02*
D03*
X325905D02*
D03*
D45*
X335905D02*
D03*
D46*
X131417Y155512D02*
D03*
X141417D02*
D03*
X151417D02*
D03*
D47*
X161417D02*
D03*
D48*
X342520Y11811D02*
D03*
X11811D02*
D03*
X342520Y177165D02*
D03*
X11811D02*
D03*
D63*
X137409Y88583D02*
D03*
X31109D02*
D03*
X84259D02*
D03*
D64*
X137409Y83583D02*
D03*
Y78583D02*
D03*
Y73583D02*
D03*
Y68583D02*
D03*
Y63583D02*
D03*
Y58583D02*
D03*
Y53583D02*
D03*
X118110D02*
D03*
Y58583D02*
D03*
Y63583D02*
D03*
Y68583D02*
D03*
Y73583D02*
D03*
Y78583D02*
D03*
Y83583D02*
D03*
Y88583D02*
D03*
X31109Y83583D02*
D03*
Y78583D02*
D03*
Y73583D02*
D03*
Y68583D02*
D03*
Y63583D02*
D03*
Y58583D02*
D03*
Y53583D02*
D03*
X11811D02*
D03*
Y58583D02*
D03*
Y63583D02*
D03*
Y68583D02*
D03*
Y73583D02*
D03*
Y78583D02*
D03*
Y83583D02*
D03*
Y88583D02*
D03*
X64961D02*
D03*
Y83583D02*
D03*
Y78583D02*
D03*
Y73583D02*
D03*
Y68583D02*
D03*
Y63583D02*
D03*
Y58583D02*
D03*
Y53583D02*
D03*
X84259D02*
D03*
Y58583D02*
D03*
Y63583D02*
D03*
Y68583D02*
D03*
Y73583D02*
D03*
Y78583D02*
D03*
Y83583D02*
D03*
D67*
X44882Y88189D02*
D03*
X37795D02*
D03*
X44882Y78741D02*
D03*
X37795D02*
D03*
X144094Y62205D02*
D03*
X151181D02*
D03*
X144094Y71653D02*
D03*
X151181D02*
D03*
X144094Y78740D02*
D03*
X151181D02*
D03*
X144094Y88188D02*
D03*
X151181D02*
D03*
X90944Y62206D02*
D03*
X98031D02*
D03*
X90944Y71654D02*
D03*
X98031D02*
D03*
X90945Y78741D02*
D03*
X98032D02*
D03*
X90945Y88189D02*
D03*
X98032D02*
D03*
X37795Y62205D02*
D03*
X44882D02*
D03*
X37795Y71653D02*
D03*
X44882D02*
D03*
D68*
Y85040D02*
D03*
X37795D02*
D03*
X44882Y81890D02*
D03*
X37795D02*
D03*
X144094Y65354D02*
D03*
X151181D02*
D03*
X144094Y68504D02*
D03*
X151181D02*
D03*
X144094Y81889D02*
D03*
X151181D02*
D03*
X144094Y85039D02*
D03*
X151181D02*
D03*
X90944Y65355D02*
D03*
X98031D02*
D03*
X90944Y68505D02*
D03*
X98031D02*
D03*
X90945Y81890D02*
D03*
X98032D02*
D03*
X90945Y85040D02*
D03*
X98032D02*
D03*
X37795Y65354D02*
D03*
X44882D02*
D03*
X37795Y68504D02*
D03*
X44882D02*
D03*
M02*
