G04*
G04 #@! TF.GenerationSoftware,Altium Limited,Altium Designer,20.2.6 (244)*
G04*
G04 Layer_Color=32896*
%FSLAX25Y25*%
%MOIN*%
G70*
G04*
G04 #@! TF.SameCoordinates,357903E5-7464-4FF3-9603-397411888FB0*
G04*
G04*
G04 #@! TF.FilePolarity,Positive*
G04*
G01*
G75*
%ADD11C,0.01000*%
%ADD14C,0.01968*%
%ADD16C,0.00787*%
%ADD69C,0.00984*%
D11*
X27165Y164488D02*
X327165D01*
X27165Y184488D02*
X327165D01*
X327952Y164488D02*
Y184488D01*
X26378Y164488D02*
Y184488D01*
X327165D02*
X327952D01*
X327165Y164488D02*
X327952D01*
X26378D02*
X27165D01*
X26378Y184488D02*
X27165D01*
X26378Y24488D02*
X27165D01*
X26378Y4488D02*
X27165D01*
X327165D02*
X327952D01*
X327165Y24488D02*
X327952D01*
X26378Y4488D02*
Y24488D01*
X327952Y4488D02*
Y24488D01*
X27165D02*
X327165D01*
X27165Y4488D02*
X327165D01*
X100825Y34550D02*
X101874D01*
X101349D01*
Y31926D01*
X101874Y31402D01*
X102399D01*
X102924Y31926D01*
X99775Y34550D02*
Y31402D01*
X97676D01*
X94527Y34025D02*
X95052Y34550D01*
X96102D01*
X96626Y34025D01*
Y31926D01*
X96102Y31402D01*
X95052D01*
X94527Y31926D01*
X91379Y34550D02*
X92428D01*
X91904D01*
Y31926D01*
X92428Y31402D01*
X92953D01*
X93478Y31926D01*
X90329Y34550D02*
Y31402D01*
X88230D01*
X85082Y34025D02*
X85606Y34550D01*
X86656D01*
X87181Y34025D01*
Y31926D01*
X86656Y31402D01*
X85606D01*
X85082Y31926D01*
X81933Y34550D02*
X82983D01*
X82458D01*
Y31926D01*
X82983Y31402D01*
X83507D01*
X84032Y31926D01*
X80884Y34550D02*
Y31402D01*
X78784D01*
X75636Y34025D02*
X76161Y34550D01*
X77210D01*
X77735Y34025D01*
Y31926D01*
X77210Y31402D01*
X76161D01*
X75636Y31926D01*
X72487Y34550D02*
X73537D01*
X73012D01*
Y31926D01*
X73537Y31402D01*
X74062D01*
X74586Y31926D01*
X71438Y34550D02*
Y31402D01*
X69339D01*
X66190Y34025D02*
X66715Y34550D01*
X67764D01*
X68289Y34025D01*
Y31926D01*
X67764Y31402D01*
X66715D01*
X66190Y31926D01*
X32496Y160479D02*
X34495D01*
X33495D01*
Y155481D01*
X34495Y154481D01*
X35495D01*
X36494Y155481D01*
X26498Y160479D02*
X30496D01*
Y157480D01*
X28497Y158480D01*
X27497D01*
X26498Y157480D01*
Y155481D01*
X27497Y154481D01*
X29497D01*
X30496Y155481D01*
X32867Y33986D02*
X34866D01*
X33866D01*
Y28988D01*
X34866Y27988D01*
X35866D01*
X36865Y28988D01*
X27868Y27988D02*
Y33986D01*
X30867Y30987D01*
X26869D01*
D14*
X130313Y87618D02*
G03*
X130313Y87618I-984J0D01*
G01*
X24014D02*
G03*
X24014Y87618I-984J0D01*
G01*
X77164D02*
G03*
X77164Y87618I-984J0D01*
G01*
D16*
X123237Y90571D02*
X132282D01*
X123237Y51595D02*
Y90571D01*
Y51595D02*
X132282D01*
Y90571D01*
X16938D02*
X25982D01*
X16938Y51595D02*
Y90571D01*
Y51595D02*
X25982D01*
Y90571D01*
X79132Y51595D02*
Y90571D01*
X70087Y51595D02*
X79132D01*
X70087D02*
Y90571D01*
X79132D01*
X35631Y90825D02*
X39567D01*
X35630Y76101D02*
X35631Y90825D01*
X35630Y76101D02*
X39725D01*
X43110Y76103D02*
X47125D01*
X47126Y90827D01*
X43030D02*
X47126D01*
X149330Y74291D02*
X153425D01*
X153424Y59567D02*
X153425Y74291D01*
X149409Y59567D02*
X153424D01*
X141929Y59565D02*
X146024D01*
X141929D02*
X141930Y74289D01*
X145866D01*
X149330Y90826D02*
X153425D01*
X153424Y76102D02*
X153425Y90826D01*
X149409Y76102D02*
X153424D01*
X141929Y76101D02*
X146024D01*
X141929D02*
X141930Y90825D01*
X145866D01*
X96180Y74292D02*
X100275D01*
X100274Y59568D02*
X100275Y74292D01*
X96259Y59568D02*
X100274D01*
X88779Y59566D02*
X92874D01*
X88779D02*
X88780Y74290D01*
X92716D01*
X96180Y90827D02*
X100276D01*
X100275Y76103D02*
X100276Y90827D01*
X96260Y76103D02*
X100275D01*
X88780Y76101D02*
X92875D01*
X88780D02*
X88781Y90825D01*
X92717D01*
X43030Y74291D02*
X47126D01*
X47125Y59567D02*
X47126Y74291D01*
X43110Y59567D02*
X47125D01*
X35630Y59566D02*
X39725D01*
X35630D02*
X35631Y74290D01*
X39567D01*
D69*
X143027Y88583D02*
G03*
X143027Y88583I-492J0D01*
G01*
X36728D02*
G03*
X36728Y88583I-492J0D01*
G01*
X89878D02*
G03*
X89878Y88583I-492J0D01*
G01*
M02*
